<svg version="1.1" xmlns="http://www.w3.org/2000/svg" viewBox="0 0 1233 241.2499999999999" width="1233" height="241.2499999999999">
  <!-- svg-source:excalidraw -->
  
  <defs>
    <style>
      @font-face {
        font-family: "Virgil";
        src: url("https://excalidraw.com/Virgil.woff2");
      }
      @font-face {
        font-family: "Cascadia";
        src: url("https://excalidraw.com/Cascadia.woff2");
      }
    </style>
  </defs>
  <rect x="0" y="0" width="1233" height="241.2499999999999" fill="#ffffff"></rect><g stroke-linecap="round" transform="translate(10 10) rotate(0 80 35)"><path d="M-0.38 -1.94 C57.92 -1.11, 113.34 -2.06, 160.85 1.85 M-0.89 0.92 C58 1.34, 118 1.79, 159.17 0.63 M160.22 0.48 C160.44 19.46, 158.37 39.18, 159.55 69.02 M159.36 0.92 C160.08 23.59, 159.63 48.28, 159.65 70.88 M160.35 69.25 C119.1 72.07, 74.86 72.29, -1.26 69.49 M160.85 69.32 C126.53 69.17, 93.61 69.44, -0.23 70.12 M0.02 68.53 C1.02 43.28, 1.46 17.39, -1.25 -0.51 M0.15 69.97 C-0.55 52.9, 0.19 37.51, -0.56 0.44" stroke="#000000" stroke-width="1" fill="none"></path></g><g transform="translate(15 31.5) rotate(0 75 13.5)"><text x="75" y="19" font-family="Virgil, Segoe UI Emoji" font-size="20px" fill="#000000" text-anchor="middle" style="white-space: pre;" direction="ltr">CHECKOUT</text></g><g stroke-linecap="round" transform="translate(430 10) rotate(0 80 35)"><path d="M0.86 0.17 C60.1 0.78, 122.61 3.41, 161.35 1.9 M-0.77 0.52 C40.27 -0.5, 78.79 -0.84, 159.86 -0.84 M161.03 -0.57 C159.04 13.54, 159.63 27.85, 160.89 69.71 M160.18 -0.53 C159.29 23.7, 159.2 48.21, 159.64 69.09 M161.26 71.4 C104.49 71.02, 49.35 68.89, -1.83 69.67 M159.91 70.38 C124.5 69.56, 88.03 69.04, 0.7 70.14 M1.12 69.15 C1.55 43.14, -1.25 17.51, -1.23 0.26 M-0.46 69.59 C0.17 51.57, -0.67 31.8, -0.85 -0.3" stroke="#000000" stroke-width="1" fill="none"></path></g><g transform="translate(435 18) rotate(0 75 27)"><text x="75" y="19" font-family="Virgil, Segoe UI Emoji" font-size="20px" fill="#000000" text-anchor="middle" style="white-space: pre;" direction="ltr">SETUP</text><text x="75" y="46" font-family="Virgil, Segoe UI Emoji" font-size="20px" fill="#000000" text-anchor="middle" style="white-space: pre;" direction="ltr">TERRAFORM</text></g><g stroke-linecap="round" transform="translate(640 10) rotate(0 80 35)"><path d="M-0.78 -0.78 C33.32 1.71, 66.29 1.76, 158.98 -1.79 M0.46 0.97 C61.85 -0.21, 125.21 -1.68, 159.06 0.11 M158.96 -0.87 C159.92 21.69, 161.25 45.05, 160.76 68.73 M159.73 0.03 C159.77 28.36, 159.76 54.04, 160.42 70.17 M159.18 71.62 C116.74 70.61, 74.17 70.79, -1.52 71.71 M160.37 70.65 C122.65 70.73, 86.45 70.75, 0.71 70.01 M1.56 69.13 C-1.64 53.64, -1.62 38.58, -0.48 0.3 M0.28 70.89 C-0.25 49.65, -0.53 28.12, -0.52 0.6" stroke="#000000" stroke-width="1" fill="none"></path></g><g transform="translate(645 18) rotate(0 75 27)"><text x="75" y="19" font-family="Virgil, Segoe UI Emoji" font-size="20px" fill="#000000" text-anchor="middle" style="white-space: pre;" direction="ltr">TERRAFORM</text><text x="75" y="46" font-family="Virgil, Segoe UI Emoji" font-size="20px" fill="#000000" text-anchor="middle" style="white-space: pre;" direction="ltr">FORMAT</text></g><g stroke-linecap="round" transform="translate(850 10) rotate(0 80 35)"><path d="M0.85 1.85 C50.75 2.52, 97.77 -1.17, 161.83 -1.55 M-0.83 0.63 C56.21 -2.39, 111.76 -1.44, 160.24 0.52 M159.55 -0.98 C160.53 18.72, 160.4 36.75, 161.85 70.36 M159.65 0.88 C159.45 16.37, 160.23 34.72, 159.63 70.63 M158.74 69.49 C98.97 70.97, 40.08 73, -1.36 69.82 M159.77 70.12 C106.6 71.19, 52.53 71.05, -0.74 70.56 M-1.25 69.49 C-1.78 52.24, -1.03 34.26, -0.06 -0.91 M-0.56 70.44 C-1.05 51.58, -0.72 34.37, 0.34 0.15" stroke="#000000" stroke-width="1" fill="none"></path></g><g transform="translate(855 18) rotate(0 75 27)"><text x="75" y="19" font-family="Virgil, Segoe UI Emoji" font-size="20px" fill="#000000" text-anchor="middle" style="white-space: pre;" direction="ltr">TERRAFORM </text><text x="75" y="46" font-family="Virgil, Segoe UI Emoji" font-size="20px" fill="#000000" text-anchor="middle" style="white-space: pre;" direction="ltr">INIT</text></g><g stroke-linecap="round" transform="translate(1063 13) rotate(0 80 32)"><path d="M1.35 1.9 C40.77 -3.27, 85.42 -3.03, 161.04 0.92 M-0.14 -0.84 C62.57 -0.89, 127.25 -0.49, 159.72 -0.52 M160.89 -0.29 C160.62 15.13, 161.71 33.17, 158.94 63.47 M159.64 -0.91 C160.19 19.59, 159.4 39.47, 160.7 63.59 M158.17 63.67 C97.54 65.3, 36.76 63.41, 0.76 64.74 M160.7 64.14 C102.29 64.21, 42.42 64.76, -0.43 64.78 M-1.23 64.26 C-0.08 47.9, 0.34 30.28, -0.82 0.55 M-0.85 63.7 C-0.16 39.71, 0.7 14.38, 0.39 0.04" stroke="#000000" stroke-width="1" fill="none"></path></g><g transform="translate(1068 18) rotate(0 75 27)"><text x="75" y="19" font-family="Virgil, Segoe UI Emoji" font-size="20px" fill="#000000" text-anchor="middle" style="white-space: pre;" direction="ltr">TERRAFORM</text><text x="75" y="46" font-family="Virgil, Segoe UI Emoji" font-size="20px" fill="#000000" text-anchor="middle" style="white-space: pre;" direction="ltr">VALIDATE</text></g><g stroke-linecap="round" transform="translate(221 167.2499999999999) rotate(0 80 32)"><path d="M0 0 C0 0, 0 0, 0 0 M0 0 C0 0, 0 0, 0 0 M0.31 6.9 C0.98 3.63, 3.81 2.63, 5.07 0.56 M0.1 6.38 C2.01 3.84, 3.4 2.2, 5.28 0.16 M-0.13 11.3 C1.31 8.03, 4.54 7.77, 12.1 -0.25 M0.45 11.89 C3.91 8.23, 7.22 3.93, 10.79 0.23 M-2.09 17.77 C2.26 15.98, 7.04 12.39, 15.82 0.14 M-0.19 18.04 C4.77 12.53, 9.59 7.57, 16.14 1.08 M1.15 24.03 C4.24 18.71, 13.14 12.34, 22.46 1.48 M0.9 24.71 C5.69 17, 12.64 11.57, 20.73 0.85 M1.73 32.35 C8.62 23.05, 15.25 12.89, 26.75 1.41 M-0.9 30.78 C7.04 21.07, 15.69 12.92, 25.83 -0.32 M1.1 36.8 C9.42 25.28, 22.45 10.61, 31.47 -1.04 M-0.34 36.13 C10.1 24.82, 21.21 14.1, 31.49 -0.92 M-0.03 42.32 C12.88 26.93, 30.44 8.19, 36.64 -0.5 M-0.68 41.83 C10.95 29.78, 22.91 15.4, 37.82 1.08 M-1.5 49.9 C12.98 31.09, 26.34 17.54, 40.85 1.55 M0.73 49.46 C11.64 33.1, 24.62 18.36, 41.67 0.23 M0.86 56.22 C10.66 42.23, 19.83 30.9, 46.05 1.86 M0.59 53.88 C12.44 39.15, 25.9 25.48, 47.93 0.65 M0.13 62.66 C21.39 34.87, 44 13.82, 54.88 -1.77 M0.83 60.24 C17.99 37.75, 38.05 16.04, 54.13 0.02 M0.85 64.65 C23.41 39.11, 46.78 13.01, 59.45 -1.46 M2.64 64.55 C24.69 40.15, 45.62 14.88, 57.78 0.68 M7.89 64.69 C29.47 41.61, 47.73 16.37, 62.71 -0.4 M5.7 64.67 C19.88 48.66, 34.77 32.97, 63.01 -0.4 M11.86 64.27 C28.78 46.01, 46.82 25.67, 67.21 0.17 M13.04 65.41 C31.3 41.93, 51.6 19.87, 67.8 -0.56 M16.41 64.79 C28.59 50.08, 41.61 39.44, 72.43 -0.16 M16.72 65.48 C36.87 41.61, 58.05 17.61, 74.74 0.59 M23.64 66.96 C35.11 46.99, 50.94 31.4, 79.6 -0.01 M22.63 64.06 C43.15 42.2, 63.64 19.17, 80.2 0.16 M26.89 63.83 C45.4 45.23, 62.08 26.45, 85.01 -1.28 M27.72 65.84 C49.25 41.66, 69.8 18.5, 85.08 0.06 M32.06 63.62 C48.78 48.2, 64.78 28.35, 88.81 -0.19 M32.7 65.01 C49.98 45.61, 68.42 25.76, 90 0 M38.4 66.76 C55.92 43.57, 74.13 23.21, 96.34 -0.39 M39.27 64.36 C60.02 40.8, 79.96 15.74, 96.05 -0.47 M43.87 64.74 C64.63 42.94, 82.67 22.66, 98.94 0.05 M44.84 65.23 C65.86 40.32, 86.91 15.22, 100 -0.92 M49.91 65.12 C61.28 52.51, 71.96 36.34, 107.22 -0.51 M49.75 64.61 C67.15 45.54, 82.27 26.88, 107 -0.03 M54.1 67.17 C71.27 46.44, 90.77 24.43, 111.96 1.73 M53.31 65.87 C68.3 50.68, 80.9 34.65, 111.82 -0.52 M58.28 67.05 C74.47 49.48, 91.27 30.01, 116.69 -0.34 M60.33 66.09 C79.75 41.03, 100.7 18.51, 116.89 -0.42 M66.62 65.07 C75.56 50.59, 88.28 37.07, 121.8 0.45 M64.6 66.3 C80.74 46.54, 98.23 28.28, 122.85 0.23 M72.3 63.29 C93.05 40.47, 110.66 17.79, 126.66 0.77 M69.97 65.28 C91.87 41.22, 112.29 15.27, 125.97 -0.29 M76.27 64.5 C90.02 50.8, 102.03 35.88, 132.25 0.41 M74.55 65.59 C96.99 40.53, 118.74 16.13, 133.3 0.32 M82.64 65.14 C102.25 44.53, 119.08 20.22, 135.99 1.31 M80.45 64.59 C94.91 48.55, 108.79 32.23, 136.81 0.47 M85.42 66.3 C109.34 40.57, 128.94 15.45, 143.04 0.4 M85.95 66.5 C102.44 47.82, 118.95 28.13, 143.16 -0.33 M91.9 66.54 C107.01 48.14, 121.3 31.26, 149.11 0.63 M91.31 65.4 C107.53 47.23, 124.16 27.83, 147.92 0.63 M97.38 64.95 C118.14 41.73, 134.85 19.26, 155.79 -0.19 M96.88 65.28 C111.16 49.32, 126.03 32.19, 153.23 0.18 M100.57 65.99 C119.45 45.98, 135.54 29.61, 157.33 1.65 M102.92 65.04 C116.31 48.79, 132.34 30.12, 158.12 -0.57 M106.34 66.51 C117.94 51.77, 128.49 40.41, 162.04 2.88 M107.72 64.58 C123.04 48.65, 138.34 31.84, 162.14 2.96 M113.06 64.6 C124.98 51.06, 137.66 35.43, 161.67 9.22 M113.42 65.78 C124.08 54.04, 133.58 42.88, 162.31 7.88 M119.41 66.62 C128.88 53.81, 140.81 40.78, 162.69 15.74 M118.15 64.55 C135.36 47.36, 150.38 27.73, 162.71 14.34 M123.68 64.06 C134.97 50.42, 145.04 40.22, 161.21 18.91 M123.78 65.85 C137.17 48.98, 152.11 32.22, 162.85 20.59 M130.6 64.54 C137.72 52.64, 146.64 42.47, 161.59 25.73 M128.14 65.76 C139.53 53.88, 148.81 42.35, 162.65 26.26 M134.64 64.68 C145.94 53.86, 156.54 39.59, 163.26 32.67 M134.74 64.45 C142.08 57.62, 147.71 48.18, 162.71 32.39 M138.82 65.1 C143.51 60.07, 150.77 51.37, 163.34 39.37 M138.97 66.26 C147.02 57.22, 152.52 49.91, 161.3 39.19 M146.06 63.32 C150.43 59.79, 153.26 56.13, 162.78 43.81 M145.84 64.71 C148.12 60.27, 152.12 56.38, 161.91 44.33 M149.91 64.77 C155.76 60.94, 157.64 56.4, 162.41 51.49 M150.18 64.58 C153.53 60.22, 157.22 55.69, 161.76 50.29 M154.67 64.15 C156.5 62.42, 159.05 61.24, 163.23 55.88 M156.02 64.84 C157.38 63.23, 159.47 60.23, 162.19 56.8" stroke="#7950f2" stroke-width="0.5" fill="none"></path><path d="M-1.02 -1.79 C64.65 -3.07, 126.68 -0.6, 161.94 -1.66 M-0.94 0.11 C58.28 1.86, 115.79 0.83, 159.56 -0.22 M160.76 -1.27 C162.14 16.43, 159.22 31.62, 160.07 63.29 M160.42 0.17 C159.39 25.48, 160.47 49.28, 160.81 63.37 M158.48 65.71 C114.72 63.56, 72.91 64.48, 1.3 63.54 M160.71 64.01 C109.29 64.79, 59.64 65.01, -0.44 63.38 M-0.48 64.3 C0.33 45.54, -0.43 29.45, 1.78 -1.13 M-0.52 64.6 C0.88 42.14, 0.94 20.02, 0.97 -0.78" stroke="#000000" stroke-width="1" fill="none"></path></g><g transform="translate(226 173.25) rotate(0 75 26)"><text x="75" y="19" font-family="Virgil, Segoe UI Emoji" font-size="20px" fill="#000000" text-anchor="middle" style="white-space: pre;" direction="ltr">TERRAFORM</text><text x="75" y="45" font-family="Virgil, Segoe UI Emoji" font-size="20px" fill="#000000" text-anchor="middle" style="white-space: pre;" direction="ltr">PLAN</text></g><g stroke-linecap="round" transform="translate(435 167.2499999999999) rotate(0 80 32)"><path d="M1.83 -1.55 C64.24 2.35, 128.34 -0.23, 161.25 -0.28 M0.24 0.52 C34.25 -0.7, 68.62 -0.4, 159.51 0.45 M161.85 0.36 C159.18 17.74, 160.31 35.84, 161.76 63.27 M159.63 0.63 C160.97 13, 161.08 26.18, 159.75 63.09 M158.64 63.82 C115.36 66.11, 70.51 64.91, 0.25 65.39 M159.26 64.56 C109.29 64.79, 58.99 63.39, -0.26 63.38 M-0.06 63.09 C-0.67 44.52, 1.93 22.81, 0.88 -1.71 M0.34 64.15 C0.73 46.79, 1.3 28.7, 0.95 -0.53" stroke="#000000" stroke-width="1" fill="none"></path></g><g transform="translate(440 173.25) rotate(0 75 26)"><text x="75" y="19" font-family="Virgil, Segoe UI Emoji" font-size="20px" fill="#000000" text-anchor="middle" style="white-space: pre;" direction="ltr">UPDATE</text><text x="75" y="45" font-family="Virgil, Segoe UI Emoji" font-size="20px" fill="#000000" text-anchor="middle" style="white-space: pre;" direction="ltr">PR</text></g><g stroke-linecap="round" transform="translate(220 10) rotate(0 80 35)"><path d="M1.25 -0.28 C53.65 -0.55, 110.88 1.8, 161.03 -0.57 M-0.49 0.45 C39.53 0.74, 78.71 1.28, 160.18 -0.53 M161.76 -0.73 C158.21 19.97, 160.37 37.52, 161.26 71.4 M159.75 -0.91 C160.4 17.37, 161.42 35.57, 159.91 70.38 M160.25 71.39 C106.33 71.06, 52.1 68.16, 1.12 69.15 M159.74 69.38 C99.64 68.76, 39.18 68.97, -0.46 69.59 M0.88 68.29 C-1.23 46.02, 0.57 24.81, 0.3 0.79 M0.95 69.47 C0.03 48.74, 0.29 26.64, 0.76 -0.96" stroke="#000000" stroke-width="1" fill="none"></path></g><g transform="translate(225 18) rotate(0 75 27)"><text x="75" y="19" font-family="Virgil, Segoe UI Emoji" font-size="20px" fill="#000000" text-anchor="middle" style="white-space: pre;" direction="ltr">CODE</text><text x="75" y="46" font-family="Virgil, Segoe UI Emoji" font-size="20px" fill="#000000" text-anchor="middle" style="white-space: pre;" direction="ltr">ANALYSIS</text></g><g stroke-linecap="round"><g transform="translate(171.67689523249862 44.49511602893472) rotate(0 24.16155238375069 -0.30936502441761604)"><path d="M-0.17 -1.01 C7.86 -1.22, 39.06 -0.65, 47.19 -0.49" stroke="#000000" stroke-width="1.5" fill="none" stroke-dasharray="8 9"></path></g><g transform="translate(171.67689523249862 44.49511602893472) rotate(0 24.16155238375069 -0.30936502441761604)"><path d="M22.66 5.48 C29.47 6.16, 35.24 3.42, 46.15 -1.36" stroke="#000000" stroke-width="1.5" fill="none"></path></g><g transform="translate(171.67689523249862 44.49511602893472) rotate(0 24.16155238375069 -0.30936502441761604)"><path d="M22.96 -11.05 C29.81 -6.77, 35.52 -5.93, 46.15 -1.36" stroke="#000000" stroke-width="1.5" fill="none"></path></g></g><g stroke-linecap="round"><g transform="translate(386.95117190331223 45.4405276082457) rotate(0 20.774414048343885 -0.757916829735052)"><path d="M-1.01 -1.13 C5.81 -1.31, 34.49 -1.11, 41.68 -1.23" stroke="#000000" stroke-width="1.5" fill="none" stroke-dasharray="8 9"></path></g><g transform="translate(386.95117190331223 45.4405276082457) rotate(0 20.774414048343885 -0.757916829735052)"><path d="M20.29 6.17 C29.74 4.54, 35.77 -0.13, 40.81 -1.68" stroke="#000000" stroke-width="1.5" fill="none"></path></g><g transform="translate(386.95117190331223 45.4405276082457) rotate(0 20.774414048343885 -0.757916829735052)"><path d="M20.24 -8.05 C29.68 -4.52, 35.73 -4.04, 40.81 -1.68" stroke="#000000" stroke-width="1.5" fill="none"></path></g></g><g stroke-linecap="round"><g transform="translate(591.5 44.09845700934534) rotate(0 23.5032881401479 0.8218130804598331)"><path d="M-1.13 0.13 C6.78 0.68, 39.33 2.11, 47.29 2.26" stroke="#000000" stroke-width="1.5" fill="none" stroke-dasharray="8 9"></path></g><g transform="translate(591.5 44.09845700934534) rotate(0 23.5032881401479 0.8218130804598331)"><path d="M25.16 10.03 C32.42 7.11, 36.75 4.72, 46.85 1.29" stroke="#000000" stroke-width="1.5" fill="none"></path></g><g transform="translate(591.5 44.09845700934534) rotate(0 23.5032881401479 0.8218130804598331)"><path d="M25.7 -6.05 C32.68 -4.37, 36.84 -2.16, 46.85 1.29" stroke="#000000" stroke-width="1.5" fill="none"></path></g></g><g stroke-linecap="round"><g transform="translate(806.5065762802958 44.144859363883825) rotate(0 18.9967118598521 0.17818691954016685)"><path d="M0.13 0.29 C6.74 0.48, 32.41 0.09, 38.61 0.02" stroke="#000000" stroke-width="1.5" fill="none" stroke-dasharray="8 9"></path></g><g transform="translate(806.5065762802958 44.144859363883825) rotate(0 18.9967118598521 0.17818691954016685)"><path d="M21.3 7.73 C24.2 4.28, 27.75 3.4, 37.68 0.86" stroke="#000000" stroke-width="1.5" fill="none"></path></g><g transform="translate(806.5065762802958 44.144859363883825) rotate(0 18.9967118598521 0.17818691954016685)"><path d="M21.13 -5.27 C23.95 -5.91, 27.53 -3.99, 37.68 0.86" stroke="#000000" stroke-width="1.5" fill="none"></path></g></g><g stroke-linecap="round"><g transform="translate(1013.5 44.00518348887567) rotate(0 22.79364596828816 0.355140636116289)"><path d="M0.29 0.62 C8.02 0.61, 37.78 0.11, 45.25 0.09" stroke="#000000" stroke-width="1.5" fill="none" stroke-dasharray="8 9"></path></g><g transform="translate(1013.5 44.00518348887567) rotate(0 22.79364596828816 0.355140636116289)"><path d="M24.94 7.55 C27.26 5.54, 32.24 3.78, 46.14 -0.2" stroke="#000000" stroke-width="1.5" fill="none"></path></g><g transform="translate(1013.5 44.00518348887567) rotate(0 22.79364596828816 0.355140636116289)"><path d="M24.77 -8.04 C27.14 -6.84, 32.16 -5.39, 46.14 -0.2" stroke="#000000" stroke-width="1.5" fill="none"></path></g></g><g stroke-linecap="round"><g transform="translate(386.7010330960154 199.10975684852906) rotate(0 22.63778318110866 0.45256031291910404)"><path d="M-0.34 -0.62 C7.07 -0.62, 37.25 0.29, 44.75 0.64" stroke="#000000" stroke-width="1.5" fill="none" stroke-dasharray="8 9"></path></g><g transform="translate(386.7010330960154 199.10975684852906) rotate(0 22.63778318110866 0.45256031291910404)"><path d="M22.17 6.73 C29.7 4.43, 38.02 2.86, 45.51 -0.64" stroke="#000000" stroke-width="1.5" fill="none"></path></g><g transform="translate(386.7010330960154 199.10975684852906) rotate(0 22.63778318110866 0.45256031291910404)"><path d="M22.73 -8.75 C30.16 -6.04, 38.3 -2.59, 45.51 -0.64" stroke="#000000" stroke-width="1.5" fill="none"></path></g></g><g stroke-linecap="round"><g transform="translate(1149 77.375) rotate(0 -531 62)"><path d="M-0.48 -0.83 C-0.49 6.49, 177.23 35.56, 0.29 44.82 C-176.66 54.08, -907.25 41.44, -1062.17 54.73 C-1217.1 68.02, -951.45 113.2, -929.27 124.58" stroke="#000000" stroke-width="1.5" fill="none" stroke-dasharray="8 9"></path></g><g transform="translate(1149 77.375) rotate(0 -531 62)"><path d="M-960.51 126.23 C-947.96 127.99, -938.3 126.9, -928.3 126.1" stroke="#000000" stroke-width="1.5" fill="none"></path></g><g transform="translate(1149 77.375) rotate(0 -531 62)"><path d="M-955.35 106.37 C-944.35 114.64, -936.38 120.08, -928.3 126.1" stroke="#000000" stroke-width="1.5" fill="none"></path></g></g></svg>