<svg version="1.1" xmlns="http://www.w3.org/2000/svg" viewBox="0 0 1233 241.2499999999999" width="1233" height="241.2499999999999">
  <!-- svg-source:excalidraw -->
  
  <defs>
    <style>
      @font-face {
        font-family: "Virgil";
        src: url("https://excalidraw.com/Virgil.woff2");
      }
      @font-face {
        font-family: "Cascadia";
        src: url("https://excalidraw.com/Cascadia.woff2");
      }
    </style>
  </defs>
  <rect x="0" y="0" width="1233" height="241.2499999999999" fill="#ffffff"></rect><g stroke-linecap="round" transform="translate(10 10) rotate(0 80 35)"><path d="M-0.38 -1.94 C57.92 -1.11, 113.34 -2.06, 160.85 1.85 M-0.89 0.92 C58 1.34, 118 1.79, 159.17 0.63 M160.22 0.48 C160.44 19.46, 158.37 39.18, 159.55 69.02 M159.36 0.92 C160.08 23.59, 159.63 48.28, 159.65 70.88 M160.35 69.25 C119.1 72.07, 74.86 72.29, -1.26 69.49 M160.85 69.32 C126.53 69.17, 93.61 69.44, -0.23 70.12 M0.02 68.53 C1.02 43.28, 1.46 17.39, -1.25 -0.51 M0.15 69.97 C-0.55 52.9, 0.19 37.51, -0.56 0.44" stroke="#000000" stroke-width="1" fill="none"></path></g><g transform="translate(15 31.5) rotate(0 75 13.5)"><text x="75" y="19" font-family="Virgil, Segoe UI Emoji" font-size="20px" fill="#000000" text-anchor="middle" style="white-space: pre;" direction="ltr">CHECKOUT</text></g><g stroke-linecap="round" transform="translate(430 10) rotate(0 80 35)"><path d="M0.86 0.17 C60.1 0.78, 122.61 3.41, 161.35 1.9 M-0.77 0.52 C40.27 -0.5, 78.79 -0.84, 159.86 -0.84 M161.03 -0.57 C159.04 13.54, 159.63 27.85, 160.89 69.71 M160.18 -0.53 C159.29 23.7, 159.2 48.21, 159.64 69.09 M161.26 71.4 C104.49 71.02, 49.35 68.89, -1.83 69.67 M159.91 70.38 C124.5 69.56, 88.03 69.04, 0.7 70.14 M1.12 69.15 C1.55 43.14, -1.25 17.51, -1.23 0.26 M-0.46 69.59 C0.17 51.57, -0.67 31.8, -0.85 -0.3" stroke="#000000" stroke-width="1" fill="none"></path></g><g transform="translate(435 18) rotate(0 75 27)"><text x="75" y="19" font-family="Virgil, Segoe UI Emoji" font-size="20px" fill="#000000" text-anchor="middle" style="white-space: pre;" direction="ltr">SETUP</text><text x="75" y="46" font-family="Virgil, Segoe UI Emoji" font-size="20px" fill="#000000" text-anchor="middle" style="white-space: pre;" direction="ltr">TERRAFORM</text></g><g stroke-linecap="round" transform="translate(640 10) rotate(0 80 35)"><path d="M-0.78 -0.78 C33.32 1.71, 66.29 1.76, 158.98 -1.79 M0.46 0.97 C61.85 -0.21, 125.21 -1.68, 159.06 0.11 M158.96 -0.87 C159.92 21.69, 161.25 45.05, 160.76 68.73 M159.73 0.03 C159.77 28.36, 159.76 54.04, 160.42 70.17 M159.18 71.62 C116.74 70.61, 74.17 70.79, -1.52 71.71 M160.37 70.65 C122.65 70.73, 86.45 70.75, 0.71 70.01 M1.56 69.13 C-1.64 53.64, -1.62 38.58, -0.48 0.3 M0.28 70.89 C-0.25 49.65, -0.53 28.12, -0.52 0.6" stroke="#000000" stroke-width="1" fill="none"></path></g><g transform="translate(645 18) rotate(0 75 27)"><text x="75" y="19" font-family="Virgil, Segoe UI Emoji" font-size="20px" fill="#000000" text-anchor="middle" style="white-space: pre;" direction="ltr">TERRAFORM</text><text x="75" y="46" font-family="Virgil, Segoe UI Emoji" font-size="20px" fill="#000000" text-anchor="middle" style="white-space: pre;" direction="ltr">FORMAT</text></g><g stroke-linecap="round" transform="translate(850 10) rotate(0 80 35)"><path d="M0.85 1.85 C50.75 2.52, 97.77 -1.17, 161.83 -1.55 M-0.83 0.63 C56.21 -2.39, 111.76 -1.44, 160.24 0.52 M159.55 -0.98 C160.53 18.72, 160.4 36.75, 161.85 70.36 M159.65 0.88 C159.45 16.37, 160.23 34.72, 159.63 70.63 M158.74 69.49 C98.97 70.97, 40.08 73, -1.36 69.82 M159.77 70.12 C106.6 71.19, 52.53 71.05, -0.74 70.56 M-1.25 69.49 C-1.78 52.24, -1.03 34.26, -0.06 -0.91 M-0.56 70.44 C-1.05 51.58, -0.72 34.37, 0.34 0.15" stroke="#000000" stroke-width="1" fill="none"></path></g><g transform="translate(855 18) rotate(0 75 27)"><text x="75" y="19" font-family="Virgil, Segoe UI Emoji" font-size="20px" fill="#000000" text-anchor="middle" style="white-space: pre;" direction="ltr">TERRAFORM </text><text x="75" y="46" font-family="Virgil, Segoe UI Emoji" font-size="20px" fill="#000000" text-anchor="middle" style="white-space: pre;" direction="ltr">INIT</text></g><g stroke-linecap="round" transform="translate(1063 13) rotate(0 80 32)"><path d="M1.35 1.9 C40.77 -3.27, 85.42 -3.03, 161.04 0.92 M-0.14 -0.84 C62.57 -0.89, 127.25 -0.49, 159.72 -0.52 M160.89 -0.29 C160.62 15.13, 161.71 33.17, 158.94 63.47 M159.64 -0.91 C160.19 19.59, 159.4 39.47, 160.7 63.59 M158.17 63.67 C97.54 65.3, 36.76 63.41, 0.76 64.74 M160.7 64.14 C102.29 64.21, 42.42 64.76, -0.43 64.78 M-1.23 64.26 C-0.08 47.9, 0.34 30.28, -0.82 0.55 M-0.85 63.7 C-0.16 39.71, 0.7 14.38, 0.39 0.04" stroke="#000000" stroke-width="1" fill="none"></path></g><g transform="translate(1068 18) rotate(0 75 27)"><text x="75" y="19" font-family="Virgil, Segoe UI Emoji" font-size="20px" fill="#000000" text-anchor="middle" style="white-space: pre;" direction="ltr">TERRAFORM</text><text x="75" y="46" font-family="Virgil, Segoe UI Emoji" font-size="20px" fill="#000000" text-anchor="middle" style="white-space: pre;" direction="ltr">VALIDATE</text></g><g stroke-linecap="round" transform="translate(221 167.2499999999999) rotate(0 80 32)"><path d="M0 0 C0 0, 0 0, 0 0 M0 0 C0 0, 0 0, 0 0 M0.31 6.9 C0.98 3.63, 3.81 2.63, 5.07 0.56 M0.1 6.38 C2.01 3.84, 3.4 2.2, 5.28 0.16 M-0.13 11.3 C1.31 8.03, 4.54 7.77, 12.1 -0.25 M0.45 11.89 C3.91 8.23, 7.22 3.93, 10.79 0.23 M-2.09 17.77 C2.26 15.98, 7.04 12.39, 15.82 0.14 M-0.19 18.04 C4.77 12.53, 9.59 7.57, 16.14 1.08 M1.15 24.03 C4.24 18.71, 13.14 12.34, 22.46 1.48 M0.9 24.71 C5.69 17, 12.64 11.57, 20.73 0.85 M1.73 32.35 C8.62 23.05, 15.25 12.89, 26.75 1.41 M-0.9 30.78 C7.04 21.07, 15.69 12.92, 25.83 -0.32 M1.1 36.8 C9.42 25.28, 22.45 10.61, 31.47 -1.04 M-0.34 36.13 C10.1 24.82, 21.21 14.1, 31.49 -0.92 M-0.03 42.32 C12.88 26.93, 30.44 8.19, 36.64 -0.5 M-0.68 41.83 C10.95 29.78, 22.91 15.4, 37.82 1.08 M-1.5 49.9 C12.98 31.09, 26.34 17.54, 40.85 1.55 M0.73 49.46 C11.64 33.1, 24.62 18.36, 41.67 0.23 M0.86 56.22 C10.66 42.23, 19.83 30.9, 46.05 1.86 M0.59 53.88 C12.44 39.15, 25.9 25.48, 47.93 0.65 M0.13 62.66 C21.39 34.87, 44 13.82, 54.88 -1.77 M0.83 60.24 C17.99 37.75, 38.05 16.04, 54.13 0.02 M0.85 64.65 C23.41 39.11, 46.78 13.01, 59.45 -1.46 M2.64 64.55 C24.69 40.15, 45.62 14.88, 57.78 0.68 M7.89 64.69 C29.47 41.61, 47.73 16.37, 62.71 -0.4 M5.7 64.67 C19.88 48.66, 34.77 32.97, 63.01 -0.4 M11.86 64.27 C28.78 46.01, 46.82 25.67, 67.21 0.17 M13.04 65.41 C31.3 41.93, 51.6 19.87, 67.8 -0.56 M16.41 64.79 C28.59 50.08, 41.61 39.44, 72.43 -0.16 M16.72 65.48 C36.87 41.61, 58.05 17.61, 74.74 0.59 M23.64 66.96 C35.11 46.99, 50.94 31.4, 79.6 -0.01 M22.63 64.06 C43.15 42.2, 63.64 19.17, 80.2 0.16 M26.89 63.83 C45.4 45.23, 62.08 26.45, 85.01 -1.28 M27.72 65.84 C49.25 41.66, 69.8 18.5, 85.08 0.06 M32.06 63.62 C48.78 48.2, 64.78 28.35, 88.81 -0.19 M32.7 65.01 C49.98 45.61, 68.42 25.76, 90 0 M38.4 66.76 C55.92 43.57, 74.13 23.21, 96.34 -0.39 M39.27 64.36 C60.02 40.8, 79.96 15.74, 96.05 -0.47 M43.87 64.74 C64.63 42.94, 82.67 22.66, 98.94 0.05 M44.84 65.23 C65.86 40.32, 86.91 15.22, 100 -0.92 M49.91 65.12 C61.28 52.51, 71.96 36.34, 107.22 -0.51 M49.75 64.61 C67.15 45.54, 82.27 26.88, 107 -0.03 M54.1 67.17 C71.27 46.44, 90.77 24.43, 111.96 1.73 M53.31 65.87 C68.3 50.68, 80.9 34.65, 111.82 -0.52 M58.28 67.05 C74.47 49.48, 91.27 30.01, 116.69 -0.34 M60.33 66.09 C79.75 41.03, 100.7 18.51, 116.89 -0.42 M66.62 65.07 C75.56 50.59, 88.28 37.07, 121.8 0.45 M64.6 66.3 C80.74 46.54, 98.23 28.28, 122.85 0.23 M72.3 63.29 C93.05 40.47, 110.66 17.79, 126.66 0.77 M69.97 65.28 C91.87 41.22, 112.29 15.27, 125.97 -0.29 M76.27 64.5 C90.02 50.8, 102.03 35.88, 132.25 0.41 M74.55 65.59 C96.99 40.53, 118.74 16.13, 133.3 0.32 M82.64 65.14 C102.25 44.53, 119.08 20.22, 135.99 1.31 M80.45 64.59 C94.91 48.55, 108.79 32.23, 136.81 0.47 M85.42 66.3 C109.34 40.57, 128.94 15.45, 143.04 0.4 M85.95 66.5 C102.44 47.82, 118.95 28.13, 143.16 -0.33 M91.9 66.54 C107.01 48.14, 121.3 31.26, 149.11 0.63 M91.31 65.4 C107.53 47.23, 124.16 27.83, 147.92 0.63 M97.38 64.95 C118.14 41.73, 134.85 19.26, 155.79 -0.19 M96.88 65.28 C111.16 49.32, 126.03 32.19, 153.23 0.18 M100.57 65.99 C119.45 45.98, 135.54 29.61, 157.33 1.65 M102.92 65.04 C116.31 48.79, 132.34 30.12, 158.12 -0.57 M106.34 66.51 C117.94 51.77, 128.49 40.41, 162.04 2.88 M107.72 64.58 C123.04 48.65, 138.34 31.84, 162.14 2.96 M113.06 64.6 C124.98 51.06, 137.66 35.43, 161.67 9.22 M113.42 65.78 C124.08 54.04, 133.58 42.88, 162.31 7.88 M119.41 66.62 C128.88 53.81, 140.81 40.78, 162.69 15.74 M118.15 64.55 C135.36 47.36, 150.38 27.73, 162.71 14.34 M123.68 64.06 C134.97 50.42, 145.04 40.22, 161.21 18.91 M123.78 65.85 C137.17 48.98, 152.11 32.22, 162.85 20.59 M130.6 64.54 C137.72 52.64, 146.64 42.47, 161.59 25.73 M128.14 65.76 C139.53 53.88, 148.81 42.35, 162.65 26.26 M134.64 64.68 C145.94 53.86, 156.54 39.59, 163.26 32.67 M134.74 64.45 C142.08 57.62, 147.71 48.18, 162.71 32.39 M138.82 65.1 C143.51 60.07, 150.77 51.37, 163.34 39.37 M138.97 66.26 C147.02 57.22, 152.52 49.91, 161.3 39.19 M146.06 63.32 C150.43 59.79, 153.26 56.13, 162.78 43.81 M145.84 64.71 C148.12 60.27, 152.12 56.38, 161.91 44.33 M149.91 64.77 C155.76 60.94, 157.64 56.4, 162.41 51.49 M150.18 64.58 C153.53 60.22, 157.22 55.69, 161.76 50.29 M154.67 64.15 C156.5 62.42, 159.05 61.24, 163.23 55.88 M156.02 64.84 C157.38 63.23, 159.47 60.23, 162.19 56.8" stroke="#7950f2" stroke-width="0.5" fill="none"></path><path d="M-1.02 -1.79 C64.65 -3.07, 126.68 -0.6, 161.94 -1.66 M-0.94 0.11 C58.28 1.86, 115.79 0.83, 159.56 -0.22 M160.76 -1.27 C162.14 16.43, 159.22 31.62, 160.07 63.29 M160.42 0.17 C159.39 25.48, 160.47 49.28, 160.81 63.37 M158.48 65.71 C114.72 63.56, 72.91 64.48, 1.3 63.54 M160.71 64.01 C109.29 64.79, 59.64 65.01, -0.44 63.38 M-0.48 64.3 C0.33 45.54, -0.43 29.45, 1.78 -1.13 M-0.52 64.6 C0.88 42.14, 0.94 20.02, 0.97 -0.78" stroke="#000000" stroke-width="1" fill="none"></path></g><g transform="translate(226 173.25) rotate(0 75 26)"><text x="75" y="19" font-family="Virgil, Segoe UI Emoji" font-size="20px" fill="#000000" text-anchor="middle" style="white-space: pre;" direction="ltr">TERRAFORM</text><text x="75" y="45" font-family="Virgil, Segoe UI Emoji" font-size="20px" fill="#000000" text-anchor="middle" style="white-space: pre;" direction="ltr">PLAN</text></g><g stroke-opacity="0.5" fill-opacity="0.5" stroke-linecap="round" transform="translate(435 167.2499999999999) rotate(0 80 32)"><path d="M0 0 C0 0, 0 0, 0 0 M0 0 C0 0, 0 0, 0 0 M-0.93 5.8 C1.4 5.3, 2.65 3.26, 5.58 1.13 M0.1 6.07 C0.76 5.21, 2.54 3.25, 4.69 0.13 M-1.12 10.76 C2.99 9.55, 8.09 4.44, 10.75 -1.23 M0.59 11.95 C3.84 7.69, 6.68 4.92, 9.92 0.4 M-0.96 19.92 C6.54 13.45, 11.97 4.82, 16.13 1.78 M-0.23 18.29 C2.8 15.47, 7.06 11.59, 15.27 -0.67 M-1.56 24.96 C6.46 19.48, 10.95 14.61, 20.73 -0.01 M-0.04 23.78 C9.02 15.61, 15.59 6.46, 21.27 -0.95 M0.47 31.98 C5.37 23.27, 13.08 16.59, 26.09 2.09 M-0.36 29.75 C7.31 22.97, 12.68 15.04, 26.7 0.01 M-1.78 37.87 C7.76 26.94, 14.8 17.87, 32.36 -0.75 M-0.41 36.58 C7.97 29.27, 14.66 18.71, 32.77 -0.91 M-1.72 43.16 C10.97 30.11, 18.63 20.29, 37.1 -0.29 M-0.6 42.98 C11.7 28.85, 24.3 17.28, 37.14 -0.22 M-1.15 47.28 C13.51 32.41, 28.27 16.21, 42.64 1.78 M-0.93 48.24 C12.64 32.1, 26.74 16.7, 41.63 -0.83 M0.33 54.13 C18.14 32.3, 36.13 12.7, 46.84 0.73 M-0.02 54 C18.47 34.67, 36.09 14.38, 48.47 0.05 M0.22 59.15 C18.3 42.82, 34.82 20.82, 54.44 1.73 M-0.8 60.34 C18.33 39.5, 38.38 17.94, 54 -0.17 M1.68 64.64 C25.89 38.03, 47.9 12.28, 59.87 -1.18 M2.44 65.24 C17.83 45.95, 34.53 27.05, 58.89 0.68 M8.35 66.76 C26.77 41.11, 49.23 14.88, 62.54 -0.18 M6.3 64.65 C28.93 41.26, 47.93 18.14, 63.87 0.51 M11.84 65.49 C24.11 52.19, 33.9 38.89, 69.68 1.28 M12.16 64.55 C31.34 43.07, 48.59 20.83, 67.9 1 M16.97 63.52 C29.57 53.9, 38.56 39.33, 75.63 1.38 M16.81 64.94 C31.29 49.07, 45.06 35.16, 73.98 0.65 M21.19 63.69 C39.53 44.42, 57.38 24.75, 80.66 -1.05 M22.29 65.36 C35.51 51.5, 49.96 35.76, 79.28 0.78 M29.4 63.95 C45.31 46.91, 58.91 29.59, 86.29 -1.67 M28.12 64.95 C40.39 51.24, 52.64 37.31, 84.9 0.61 M33.21 66.28 C45.58 51.58, 56.92 37.46, 90.09 0.32 M32.96 65.47 C53.68 43.66, 71.76 21.65, 90.1 -0.75 M37.81 63.65 C54.42 44.8, 71.14 28.27, 97.01 -0.83 M38.89 65.34 C58.9 40.25, 81.48 16.35, 95.99 -1.27 M45.25 64.91 C65.53 42.25, 84.37 17, 102.18 1.44 M45.08 64.65 C60.5 45.42, 75.18 27.03, 99.77 0.07 M49.27 65.79 C59.22 50.25, 72.97 38.69, 106.22 -0.99 M50.06 65.23 C67.79 43.57, 89.26 20.39, 106.41 0.27 M53.94 66.55 C69.91 48.21, 83.28 34.35, 110.04 -0.04 M54.72 66.37 C72.44 45.02, 91.52 23.4, 110.94 0.39 M59.77 67.16 C84.02 39.21, 104.54 13.73, 117.54 2.3 M59.87 65.18 C82.54 39.87, 105.24 12.18, 115.44 1.24 M63.78 64.52 C77.86 48.92, 92.73 33.38, 121.67 1.13 M64.7 65.8 C86.73 42.12, 107.56 17.63, 122.59 -0.22 M72.19 64.12 C83.48 48.58, 99.64 31.73, 128.53 1.84 M70.85 66.22 C89.75 42.4, 109.15 19.43, 126.15 0.31 M77.2 64.99 C88.04 51.45, 98.67 39.06, 134 -0.22 M75.67 65.31 C96.88 42.22, 117.11 19.65, 133 -0.72 M82.33 66.64 C93 48.87, 106.71 34.45, 136.63 1.25 M80.85 64.82 C95.18 48.84, 109.56 32.66, 138.42 0.36 M87.2 65.98 C100.99 47.6, 118.45 28.74, 142.85 -1.64 M85.74 66.47 C103.47 44.94, 120.81 24.96, 142.74 0.39 M92.88 64.27 C104.76 49.72, 116.8 37.35, 147.87 2.02 M91.99 65.91 C111.23 43.71, 128.63 23.01, 148.6 0.49 M98.68 64.08 C110.72 46.9, 128.78 30.8, 152.95 0.87 M96.82 65.82 C110.22 50.42, 122.67 35.38, 153.66 0.05 M103.46 64.17 C117.68 50.38, 128.8 34.9, 158.2 2.22 M101.7 65.87 C114.3 50.8, 125.69 36.39, 157.82 -0.24 M106.45 64.5 C121.41 48.17, 137.79 30.88, 161.97 1.22 M107.6 65.83 C121.55 50.83, 134.85 34.6, 161.97 1.91 M112.57 65.09 C126.55 48.07, 139.68 34.62, 160.24 6.83 M113.7 65.54 C128.78 47.35, 144.33 27.97, 161.81 8.44 M117.23 67.03 C129.15 53.34, 141.65 39.27, 163.89 12.17 M118.59 65.95 C129.55 51.31, 142.56 37.84, 162.56 14.38 M123.64 63.36 C131.8 55.56, 141.55 41.71, 163.66 20.57 M123.02 65.19 C134.61 51.9, 145.84 39.78, 162.23 19.98 M127.63 64.06 C137.19 52.86, 148.88 40.06, 162.69 24.7 M129.08 65.57 C138.54 53.92, 149.05 42.02, 163.71 26.95 M134.98 66.92 C144.4 53.98, 155.18 41.95, 161.4 31.52 M134.96 65.58 C141.62 54.95, 150.61 46.3, 161.9 33.5 M138.19 66.56 C147.75 55.32, 156.06 47.85, 162.08 37.97 M140.16 65.02 C146.37 56.77, 153.16 48.44, 161.82 39.12 M145.83 65.29 C151 58.96, 159.09 48.07, 161.02 44.14 M144.16 64.9 C150.69 57.93, 157.27 49.5, 163.13 43.86 M151.27 66.07 C153.37 61.31, 159.17 55.25, 162.6 52.41 M149.72 64.64 C152.44 61.29, 155.2 57.9, 161.6 50.63 M154.87 64.21 C157.59 62.96, 159.5 60.3, 162.33 57.11 M155.52 65.42 C157.94 61.97, 159.5 59.83, 162.36 56.78 M0.01 64.01 C0.01 64.01, 0.01 64.01, 0.01 64.01 M0.01 64.01 C0.01 64.01, 0.01 64.01, 0.01 64.01 M6.95 64.11 C4.9 62.21, 3.28 61.23, -0.11 58.39 M6.04 64.04 C4.44 62.42, 2.6 60.79, 0.65 58.85 M13.27 64.14 C9.41 61.88, 5.7 58.96, -1.5 52.02 M12.58 63.72 C9 61.87, 6.63 58.96, 0.14 53.18 M17 65.69 C10.75 59.09, 3.45 54.1, -1.32 47.02 M17.5 64.38 C14.72 61.46, 10.49 57.76, -0.23 48.48 M23.57 64.18 C17.58 57.08, 7.85 49.61, -1.36 43.39 M23.42 63.85 C19.42 58.2, 14.39 53.91, 0.72 42.92 M31.73 64.36 C22.61 57.85, 14.01 49.79, 1.37 37.99 M30.18 63.3 C20.31 53.69, 8.13 44.66, 1.3 38.16 M37.7 66.1 C23.2 54.56, 11.5 43.13, 1.76 33.01 M36.88 63.53 C27.71 55.43, 18.26 48.54, 0.59 32.14 M41.72 63.38 C29.37 54.96, 20.07 43.53, -1.67 27.78 M41.64 62.92 C29.51 52.01, 14.21 39.5, 0.98 27.27 M48.43 65.19 C31.96 50.66, 15.08 35.73, -0.72 22.49 M48.46 64.45 C30.97 47.52, 11.79 31.08, -0.37 21.26 M53.63 63.85 C36.86 50.62, 21.25 36.86, -1.45 18.39 M55.28 63.14 C36.77 48.22, 17.88 32.41, 0.92 17.37 M60.39 63.23 C42.48 46.48, 23.68 31.14, -2.1 9.41 M60.58 64.29 C37.95 44.78, 15.43 24.55, -0.04 11.21 M65.8 63.1 C42.11 44.02, 15.41 19.91, -1.05 6.43 M67.53 64.98 C47.22 45.17, 26.26 27.96, 1.02 5.01 M73.35 63.97 C57.05 50.99, 43.12 35.74, 1.24 0.9 M72.71 63.01 C45.95 40.36, 19.19 17.19, -0.98 0.38 M79.2 66.09 C50.04 39.24, 24.17 15.33, 0.58 -0.94 M79.88 64.95 C58.19 45.67, 37.37 26.35, 2.25 -3.38 M84.99 63.72 C60.02 45.49, 37.4 25.37, 8.85 -4.4 M85.12 64.54 C67.28 47.03, 47.05 32.11, 9.59 -2.53 M91.96 63.36 C63.41 42.55, 37.9 19.02, 13.72 -1.35 M92.38 63.99 C63.32 40.37, 36.78 17.36, 14.65 -3.79 M97.67 66.06 C75.18 42.5, 54.3 24.52, 22.12 -3.42 M98.62 64.4 C78.98 47.48, 58.83 31.06, 20.64 -2.48 M102.39 62.37 C85.6 50.89, 71.27 34.02, 25.18 -2.95 M103.59 63.81 C78.07 40.05, 52.85 17.89, 25.71 -3.36 M109.37 65.19 C89.79 48.74, 73.75 33.52, 32.36 -2.83 M110.55 64.11 C86.4 43.11, 59.95 21.61, 32.48 -3.35 M115.67 62.17 C87.66 42.09, 64.66 20.68, 40.23 -2.11 M116.42 64.59 C88.2 41.2, 61.54 15.9, 39.26 -3.09 M120.24 63.86 C92.79 40.12, 66.6 15.41, 46.79 -1.12 M122.33 64.11 C106.29 51.15, 90.17 36.88, 45.73 -2.95 M126.68 64.08 C110.76 47.49, 89.73 31.86, 51.8 -4.56 M127.79 64.62 C98.36 38.05, 67 10, 51.7 -2.01 M135.6 64.78 C110.82 44.24, 84.2 22.98, 55.55 -1.16 M133.4 64.12 C107.08 40.52, 80.08 18.84, 57.3 -2.64 M138.92 63.02 C113.56 36.51, 84.44 13.98, 62.99 -3.49 M140.65 64.67 C113 38.79, 83.54 15.34, 63.46 -2.2 M144.66 65.24 C126.16 44.19, 104.29 27.53, 70.45 -3.59 M145.02 62.83 C118.22 39.35, 89.99 16.24, 70.14 -1.65 M151.05 65.5 C127.72 43.83, 100.87 21.7, 74.04 -4.12 M151.55 64.94 C133.54 47.45, 114.35 30.4, 75.02 -2.47 M159.29 63.79 C141.79 50.8, 124.28 34.5, 79.92 -3.4 M157.99 63.54 C143.78 50.43, 127.52 37.27, 81.26 -2.75 M161.64 62.98 C135.25 37.04, 109.22 15.05, 89.11 -1.11 M162.28 61.44 C136.45 40.34, 110.65 17.3, 86.66 -2.67 M159.97 55.7 C137.28 35.24, 115.78 15.01, 95.57 -4.05 M161.57 56.65 C137.22 33.98, 111.38 11.61, 93.21 -3.27 M160.87 51.92 C137.57 29.7, 116.81 11.25, 99.01 -3.84 M162.66 51.06 C148.96 40.35, 135.16 28.79, 100.22 -2.01 M162.41 43.98 C143.4 30.4, 126.79 13.13, 107.17 -2.02 M161.2 45.62 C143.88 30.3, 127.33 17.18, 106.09 -2.76 M163.2 39.47 C146.09 28.25, 132 15.49, 112.19 -1.1 M162.17 40.23 C144.5 24.12, 126.16 9.12, 113.05 -2.77 M162.47 34.9 C147.7 23.78, 130.14 9.69, 117.38 -4.24 M162.34 35.56 C144.24 20.33, 126.53 4.67, 117.3 -3.3 M162.16 29.85 C152.82 22.74, 145.2 12.74, 125.29 -3.08 M161.76 30.3 C148.06 18.57, 135.62 7.6, 123.58 -3.27 M162.91 24.72 C154.94 15.55, 143.31 9.41, 132.53 -1.37 M162.21 24.94 C150.03 14.19, 139.1 5.04, 131.29 -1.87 M162.2 18.87 C158.33 14.82, 151.01 8.11, 138.08 -2.06 M162.68 19.06 C154.95 13.33, 148.35 8.42, 137.27 -3.54 M162.37 12.31 C155 6.12, 144.88 1.25, 141.6 -4.44 M161.84 13.14 C156.35 7.86, 150.37 2.91, 143.53 -1.97 M160.82 8.01 C155.42 3.94, 152.64 -0.54, 148.25 -1.85 M161.55 7.88 C159.34 5.79, 156.37 2.55, 148.4 -3.6 M161.52 2.2 C159.62 1.86, 157.73 -0.8, 154.78 -2.86 M161.37 3.29 C160.42 1.74, 157.98 0.48, 154.49 -2.75" stroke="#ced4da" stroke-width="0.5" fill="none"></path><path d="M1.83 -1.55 C64.24 2.35, 128.34 -0.23, 161.25 -0.28 M0.24 0.52 C34.25 -0.7, 68.62 -0.4, 159.51 0.45 M161.85 0.36 C159.18 17.74, 160.31 35.84, 161.76 63.27 M159.63 0.63 C160.97 13, 161.08 26.18, 159.75 63.09 M158.64 63.82 C115.36 66.11, 70.51 64.91, 0.25 65.39 M159.26 64.56 C109.29 64.79, 58.99 63.39, -0.26 63.38 M-0.06 63.09 C-0.67 44.52, 1.93 22.81, 0.88 -1.71 M0.34 64.15 C0.73 46.79, 1.3 28.7, 0.95 -0.53" stroke="#000000" stroke-width="1" fill="none"></path></g><g stroke-opacity="0.5" fill-opacity="0.5" transform="translate(440 173.25) rotate(0 75 26)"><text x="75" y="19" font-family="Virgil, Segoe UI Emoji" font-size="20px" fill="#000000" text-anchor="middle" style="white-space: pre;" direction="ltr">UPDATE</text><text x="75" y="45" font-family="Virgil, Segoe UI Emoji" font-size="20px" fill="#000000" text-anchor="middle" style="white-space: pre;" direction="ltr">PR</text></g><g stroke-linecap="round" transform="translate(643 167.2499999999999) rotate(0 80 32)"><path d="M0 0 C0 0, 0 0, 0 0 M0 0 C0 0, 0 0, 0 0 M0 6.98 C1.77 4.44, 4.19 2.83, 4.54 1.09 M-0.47 6.68 C1.53 4.46, 2.49 2.64, 5.02 0.29 M-0.26 13.21 C4.37 8.84, 5.68 4.79, 10.74 0.6 M0.67 11.37 C3.17 8.92, 5.24 5.71, 11.21 -0.82 M0.5 20.14 C4.34 13.31, 8.85 10.13, 13.85 0.21 M-0.54 19.24 C4.51 14.5, 7.73 8.04, 14.9 0.77 M1.77 24.99 C7.93 18.36, 12.44 9.68, 22.89 1.2 M1.17 24.95 C7.42 16.31, 15.57 5.76, 20.7 0.79 M-0.79 30.89 C10.76 19.53, 20.42 8.34, 25.13 -1.53 M0.62 30.42 C8.37 20.08, 17.91 10.44, 25.69 0.97 M0.14 35.98 C9.12 24.84, 19.53 14.17, 30.65 -0.26 M0.3 37.83 C6.66 27.81, 15.19 19.47, 31.43 -0.19 M1.58 40.83 C10.95 29.39, 22.07 17.35, 37.1 -1.39 M-0.08 41.76 C9.88 33.41, 17.69 22.33, 37.36 -0.43 M-1.69 49.72 C13.34 33.84, 30.01 16.95, 43.12 1.56 M-1.01 48.51 C14.55 32.19, 29.61 13.74, 43.49 0.16 M-0.44 54.25 C16.89 35.5, 35.75 13.56, 49.04 0.86 M0.85 54.81 C11.78 42.68, 23.25 29.5, 47.62 0.28 M1.78 62.32 C22.12 36.32, 42.13 16.29, 54.28 1.46 M-0.12 60.91 C13.62 47.52, 25.63 33.36, 54.1 -0.6 M3.31 63.55 C18.72 45.54, 34.82 27.79, 58.12 2.03 M1.54 65.06 C14.78 49.53, 29.77 33.56, 58.99 0.78 M5.17 66.19 C20.05 47.69, 34.83 30.71, 65.02 -2.2 M7.6 64.59 C18.87 51.13, 32.41 37.45, 62.81 -0.45 M12.48 65.17 C25.67 48.03, 42.85 32.21, 69.44 1.55 M12.96 64.93 C30.4 42.89, 49.4 22.71, 67.77 -0.31 M17.81 66.89 C30.8 48.41, 49.32 32.32, 73.14 -1.47 M17.39 64.63 C35.48 46.42, 52.19 26.39, 74.46 0.09 M22.54 64.76 C46.16 39.5, 69.6 12.71, 78 -0.58 M22.31 65.88 C35.71 51.66, 46.27 39.07, 79.08 -0.42 M29.65 64.09 C40.14 50.2, 54.1 35.22, 83.33 -0.77 M28 65.57 C47.62 43.28, 67.16 21.15, 84.17 -1.05 M33.06 65.01 C45.58 49.32, 59.92 34.81, 90.69 -1.74 M34.3 65.29 C51.06 45, 68.23 24.62, 89.81 -0.01 M38.45 63.5 C60.67 41.44, 82.48 16.67, 97.19 1.04 M37.87 64.39 C50.26 51.99, 61.68 37.98, 96.37 -0.49 M44.54 66.2 C58.5 46.2, 78.07 28.82, 100.33 1.26 M44.9 63.97 C61.51 42.91, 79.74 22.65, 99.68 0.39 M47.92 63.46 C66.7 45.96, 82.26 26.41, 107.25 0.71 M48.29 65.99 C62.46 50.64, 74.95 35.89, 105.78 -0.4 M55.7 64.95 C76.35 42.55, 95.81 16.19, 111.63 -1.79 M53.76 65.95 C72.66 43.75, 90.03 23.65, 112.17 -0.77 M61.63 64.88 C82.22 38.81, 105.01 16.23, 118.26 1.32 M60.31 66.25 C81.96 39.81, 102 16.75, 115.78 1.27 M64.15 65.21 C80.58 48.59, 95.96 31.43, 123.21 -0.5 M65.76 66.44 C86.76 41.76, 107.4 17.27, 121.58 0.89 M69.08 65.27 C81.09 52.88, 94.35 40.83, 127.86 -0.68 M69.79 65 C86.42 44.39, 103.7 25.3, 125.99 0.74 M76.42 64.79 C88.56 50.2, 104.26 33.52, 133.61 -1.89 M76.14 65.38 C93.11 46.57, 109.84 25.95, 132 0.71 M79.67 64.75 C95.92 46.56, 113.28 27.25, 136.63 -1.03 M80.37 65.02 C93.98 50.15, 109.02 34.59, 137.36 -0.03 M84.63 66.36 C104.8 43.86, 123.81 19.73, 143.25 -0.38 M86.06 65.4 C108.77 38.99, 130.8 13.88, 142.32 -0.01 M92.72 64 C113.1 41.89, 132.64 19.38, 148.7 -0.6 M92.52 65.04 C109.53 44.19, 128.41 23.12, 147.82 0.6 M95.8 64.15 C113.52 48.12, 126.13 31.41, 152.47 0.18 M97.01 65.57 C111.74 47.7, 127.8 29.58, 153.23 -1.02 M103.44 66.32 C119.88 44.6, 140.08 22.94, 157.11 1.32 M102.48 64.74 C118.47 45.14, 134.51 26.67, 158.57 -0.27 M105.82 66.01 C126.52 44.35, 145.75 20.49, 161.56 2.83 M107.75 66.45 C118.33 53, 129.61 38.78, 162.24 2.14 M112.95 63.6 C126.1 50.28, 138.18 32.35, 162.6 9.34 M113.29 65.78 C130.77 43.51, 148.32 23.3, 161.89 9.21 M117.54 67.36 C134.23 48.35, 151.39 26.42, 162.1 14.47 M117.36 65.02 C127.07 54.77, 136.19 44.14, 162.06 14.17 M122.28 66.32 C132.16 52.66, 144.27 43.2, 161.96 20.84 M123.8 64.72 C139.04 48.24, 153.06 30.8, 162.53 21.53 M126.68 65.24 C136.38 55.19, 146.19 44.14, 162.69 25.23 M128.19 65.72 C139.72 52.4, 152.13 40.01, 163.32 26.37 M134.37 65.55 C142.89 55.71, 148.98 45.41, 162.24 33.54 M133.64 64.14 C141.08 56.86, 147.07 50.14, 162.88 32.37 M139.89 64.26 C147.07 58.13, 152.35 49.2, 162.64 38.42 M138.92 65.45 C146.97 55.48, 156.37 45.21, 163.21 39.56 M144.04 66.95 C148.8 59.76, 150.86 55.69, 164.1 46.52 M144.25 65.51 C149.14 59.21, 155.16 53.22, 163.31 44.64 M148.75 66.58 C153.18 61.94, 156.73 59, 161.18 51.62 M149.51 64.6 C152.04 61.61, 154.59 58.82, 161.75 50.29 M155.82 64.87 C157.69 62.36, 158.42 61.71, 162.95 57.66 M155.71 64.6 C156.96 62.76, 159.12 60.45, 162.63 56.14" stroke="#7950f2" stroke-width="0.5" fill="none"></path><path d="M1.04 0.92 C35.64 -0.42, 68.65 0.96, 158.32 -1.88 M-0.28 -0.52 C49.33 -1.05, 99.05 -0.38, 159.86 0.38 M158.94 -0.53 C160.66 14.41, 162.36 29.51, 158.19 64.84 M160.7 -0.41 C160.57 19.68, 159.51 39.7, 159.84 63.24 M160.76 64.74 C99.64 63.4, 36.93 65.25, 0.29 65.42 M159.57 64.78 C111.42 64.27, 63.47 64.28, 0.13 63.76 M-0.82 64.55 C1.8 42.71, 0.9 21.98, -0.61 -1.05 M0.39 64.04 C0.75 40.2, 0.73 17.43, 0.7 0.06" stroke="#000000" stroke-width="1" fill="none"></path></g><g transform="translate(648 173.25) rotate(0 75 26)"><text x="75" y="19" font-family="Virgil, Segoe UI Emoji" font-size="20px" fill="#000000" text-anchor="middle" style="white-space: pre;" direction="ltr">TERRAFORM</text><text x="75" y="45" font-family="Virgil, Segoe UI Emoji" font-size="20px" fill="#000000" text-anchor="middle" style="white-space: pre;" direction="ltr">APPLY</text></g><g stroke-linecap="round" transform="translate(220 10) rotate(0 80 35)"><path d="M1.25 -0.28 C53.65 -0.55, 110.88 1.8, 161.03 -0.57 M-0.49 0.45 C39.53 0.74, 78.71 1.28, 160.18 -0.53 M161.76 -0.73 C158.21 19.97, 160.37 37.52, 161.26 71.4 M159.75 -0.91 C160.4 17.37, 161.42 35.57, 159.91 70.38 M160.25 71.39 C106.33 71.06, 52.1 68.16, 1.12 69.15 M159.74 69.38 C99.64 68.76, 39.18 68.97, -0.46 69.59 M0.88 68.29 C-1.23 46.02, 0.57 24.81, 0.3 0.79 M0.95 69.47 C0.03 48.74, 0.29 26.64, 0.76 -0.96" stroke="#000000" stroke-width="1" fill="none"></path></g><g transform="translate(225 18) rotate(0 75 27)"><text x="75" y="19" font-family="Virgil, Segoe UI Emoji" font-size="20px" fill="#000000" text-anchor="middle" style="white-space: pre;" direction="ltr">CODE</text><text x="75" y="46" font-family="Virgil, Segoe UI Emoji" font-size="20px" fill="#000000" text-anchor="middle" style="white-space: pre;" direction="ltr">ANALYSIS</text></g><g stroke-linecap="round"><g transform="translate(171.67689523249862 44.49511602893472) rotate(0 24.16155238375069 -0.30936502441761604)"><path d="M-0.17 -1.01 C7.86 -1.22, 39.06 -0.65, 47.19 -0.49" stroke="#000000" stroke-width="1.5" fill="none" stroke-dasharray="8 9"></path></g><g transform="translate(171.67689523249862 44.49511602893472) rotate(0 24.16155238375069 -0.30936502441761604)"><path d="M22.66 5.48 C29.47 6.16, 35.24 3.42, 46.15 -1.36" stroke="#000000" stroke-width="1.5" fill="none"></path></g><g transform="translate(171.67689523249862 44.49511602893472) rotate(0 24.16155238375069 -0.30936502441761604)"><path d="M22.96 -11.05 C29.81 -6.77, 35.52 -5.93, 46.15 -1.36" stroke="#000000" stroke-width="1.5" fill="none"></path></g></g><g stroke-linecap="round"><g transform="translate(386.95117190331223 45.4405276082457) rotate(0 20.774414048343885 -0.757916829735052)"><path d="M-1.01 -1.13 C5.81 -1.31, 34.49 -1.11, 41.68 -1.23" stroke="#000000" stroke-width="1.5" fill="none" stroke-dasharray="8 9"></path></g><g transform="translate(386.95117190331223 45.4405276082457) rotate(0 20.774414048343885 -0.757916829735052)"><path d="M20.29 6.17 C29.74 4.54, 35.77 -0.13, 40.81 -1.68" stroke="#000000" stroke-width="1.5" fill="none"></path></g><g transform="translate(386.95117190331223 45.4405276082457) rotate(0 20.774414048343885 -0.757916829735052)"><path d="M20.24 -8.05 C29.68 -4.52, 35.73 -4.04, 40.81 -1.68" stroke="#000000" stroke-width="1.5" fill="none"></path></g></g><g stroke-linecap="round"><g transform="translate(591.5 44.09845700934534) rotate(0 23.5032881401479 0.8218130804598331)"><path d="M-1.13 0.13 C6.78 0.68, 39.33 2.11, 47.29 2.26" stroke="#000000" stroke-width="1.5" fill="none" stroke-dasharray="8 9"></path></g><g transform="translate(591.5 44.09845700934534) rotate(0 23.5032881401479 0.8218130804598331)"><path d="M25.16 10.03 C32.42 7.11, 36.75 4.72, 46.85 1.29" stroke="#000000" stroke-width="1.5" fill="none"></path></g><g transform="translate(591.5 44.09845700934534) rotate(0 23.5032881401479 0.8218130804598331)"><path d="M25.7 -6.05 C32.68 -4.37, 36.84 -2.16, 46.85 1.29" stroke="#000000" stroke-width="1.5" fill="none"></path></g></g><g stroke-linecap="round"><g transform="translate(806.5065762802958 44.144859363883825) rotate(0 18.9967118598521 0.17818691954016685)"><path d="M0.13 0.29 C6.74 0.48, 32.41 0.09, 38.61 0.02" stroke="#000000" stroke-width="1.5" fill="none" stroke-dasharray="8 9"></path></g><g transform="translate(806.5065762802958 44.144859363883825) rotate(0 18.9967118598521 0.17818691954016685)"><path d="M21.3 7.73 C24.2 4.28, 27.75 3.4, 37.68 0.86" stroke="#000000" stroke-width="1.5" fill="none"></path></g><g transform="translate(806.5065762802958 44.144859363883825) rotate(0 18.9967118598521 0.17818691954016685)"><path d="M21.13 -5.27 C23.95 -5.91, 27.53 -3.99, 37.68 0.86" stroke="#000000" stroke-width="1.5" fill="none"></path></g></g><g stroke-linecap="round"><g transform="translate(1013.5 44.00518348887567) rotate(0 22.79364596828816 0.355140636116289)"><path d="M0.29 0.62 C8.02 0.61, 37.78 0.11, 45.25 0.09" stroke="#000000" stroke-width="1.5" fill="none" stroke-dasharray="8 9"></path></g><g transform="translate(1013.5 44.00518348887567) rotate(0 22.79364596828816 0.355140636116289)"><path d="M24.94 7.55 C27.26 5.54, 32.24 3.78, 46.14 -0.2" stroke="#000000" stroke-width="1.5" fill="none"></path></g><g transform="translate(1013.5 44.00518348887567) rotate(0 22.79364596828816 0.355140636116289)"><path d="M24.77 -8.04 C27.14 -6.84, 32.16 -5.39, 46.14 -0.2" stroke="#000000" stroke-width="1.5" fill="none"></path></g></g><g stroke-linecap="round"><g stroke-opacity="0.5" fill-opacity="0.5" transform="translate(386.7010330960154 199.10975684852906) rotate(0 22.63778318110866 0.45256031291910404)"><path d="M-0.34 -0.62 C7.07 -0.62, 37.25 0.29, 44.75 0.64" stroke="#000000" stroke-width="1.5" fill="none" stroke-dasharray="8 9"></path></g><g stroke-opacity="0.5" fill-opacity="0.5" transform="translate(386.7010330960154 199.10975684852906) rotate(0 22.63778318110866 0.45256031291910404)"><path d="M22.17 6.73 C29.7 4.43, 38.02 2.86, 45.51 -0.64" stroke="#000000" stroke-width="1.5" fill="none"></path></g><g stroke-opacity="0.5" fill-opacity="0.5" transform="translate(386.7010330960154 199.10975684852906) rotate(0 22.63778318110866 0.45256031291910404)"><path d="M22.73 -8.75 C30.16 -6.04, 38.3 -2.59, 45.51 -0.64" stroke="#000000" stroke-width="1.5" fill="none"></path></g></g><g stroke-linecap="round"><g transform="translate(601.0171469971538 199.51618658428617) rotate(0 19.607650672458135 -0.004486313402537689)"><path d="M-0.62 -0.52 C5.76 -0.57, 32.22 -0.65, 38.95 -0.6" stroke="#000000" stroke-width="1.5" fill="none" stroke-dasharray="8 9"></path></g><g transform="translate(601.0171469971538 199.51618658428617) rotate(0 19.607650672458135 -0.004486313402537689)"><path d="M19.66 5.64 C26.05 4.7, 33.21 2.23, 37.7 1.22" stroke="#000000" stroke-width="1.5" fill="none"></path></g><g transform="translate(601.0171469971538 199.51618658428617) rotate(0 19.607650672458135 -0.004486313402537689)"><path d="M19.68 -7.77 C26.03 -3.99, 33.18 -1.75, 37.7 1.22" stroke="#000000" stroke-width="1.5" fill="none"></path></g></g><g stroke-linecap="round"><g transform="translate(1149 77.375) rotate(0 -531 62)"><path d="M-0.48 -0.83 C-0.49 6.49, 177.23 35.56, 0.29 44.82 C-176.66 54.08, -907.25 41.44, -1062.17 54.73 C-1217.1 68.02, -951.45 113.2, -929.27 124.58" stroke="#000000" stroke-width="1.5" fill="none" stroke-dasharray="8 9"></path></g><g transform="translate(1149 77.375) rotate(0 -531 62)"><path d="M-960.51 126.23 C-947.96 127.99, -938.3 126.9, -928.3 126.1" stroke="#000000" stroke-width="1.5" fill="none"></path></g><g transform="translate(1149 77.375) rotate(0 -531 62)"><path d="M-955.35 106.37 C-944.35 114.64, -936.38 120.08, -928.3 126.1" stroke="#000000" stroke-width="1.5" fill="none"></path></g></g></svg>