<svg version="1.1" xmlns="http://www.w3.org/2000/svg" viewBox="0 0 1233 90" width="1233" height="90">
  <!-- svg-source:excalidraw -->
  
  <defs>
    <style>
      @font-face {
        font-family: "Virgil";
        src: url("https://excalidraw.com/Virgil.woff2");
      }
      @font-face {
        font-family: "Cascadia";
        src: url("https://excalidraw.com/Cascadia.woff2");
      }
    </style>
  </defs>
  <rect x="0" y="0" width="1233" height="90" fill="#ffffff"></rect><g stroke-linecap="round" transform="translate(10 10) rotate(0 80 35)"><path d="M1.47 -1.11 C43.01 -2.01, 91.08 1.04, 160.11 0.82 M0.94 0.66 C35.56 1.67, 73.27 0.52, 160 -0.51 M160.51 -1.93 C159.7 17.54, 160.27 36.98, 160.56 71.59 M159.85 0.49 C158.58 25.76, 159.83 53.16, 160.06 69.05 M159.73 69.89 C122.22 72.34, 84.46 73.31, -1.54 70.73 M159.41 69.31 C114.38 68.87, 68.09 69.77, 0.78 69.84 M1.55 71.48 C0.21 53.04, 1.99 37.39, -0.21 -0.31 M-0.76 69.25 C-0.92 47.27, 0.43 25.69, 0.33 0.54" stroke="#000000" stroke-width="1" fill="none"></path></g><g transform="translate(15 31.5) rotate(0 75 13.5)"><text x="75" y="19" font-family="Virgil, Segoe UI Emoji" font-size="20px" fill="#000000" text-anchor="middle" style="white-space: pre;" direction="ltr">CHECKOUT</text></g><g stroke-linecap="round" transform="translate(430 10) rotate(0 80 35)"><path d="M-1.27 -1.65 C62.07 2.77, 120.81 -0.33, 161.55 -1.94 M0.14 -0.81 C45.53 -1.04, 91.76 -0.77, 160.53 0.18 M158.26 1.72 C160.12 24.79, 160.72 44.82, 158.12 68.51 M160.93 0.52 C159.33 17.09, 160.44 32.1, 160.84 70.3 M158.29 71.54 C100.28 71.43, 45.41 70.82, 1.71 71.89 M160.89 70.25 C111.86 69.78, 64.06 69.69, -0.28 69.7 M0.48 69.67 C1.94 47.63, -0.59 30.88, 1.54 -1.61 M0.03 70.13 C-0.03 54.84, -0.53 39.51, -0.3 0.66" stroke="#000000" stroke-width="1" fill="none"></path></g><g transform="translate(435 18) rotate(0 75 27)"><text x="75" y="19" font-family="Virgil, Segoe UI Emoji" font-size="20px" fill="#000000" text-anchor="middle" style="white-space: pre;" direction="ltr">SETUP</text><text x="75" y="46" font-family="Virgil, Segoe UI Emoji" font-size="20px" fill="#000000" text-anchor="middle" style="white-space: pre;" direction="ltr">TERRAFORM</text></g><g stroke-linecap="round" transform="translate(640 10) rotate(0 80 35)"><path d="M-0.74 -0.45 C33.57 0.21, 67.52 -1.78, 161.93 -0.12 M-0.73 0.45 C47.95 0.14, 94.43 -0.59, 159.87 -0.12 M161.41 0.66 C159.82 23.62, 158.72 48.75, 158.77 70.03 M159.21 -0.92 C161.22 15.68, 160.37 30.65, 160.74 69.2 M161.73 69.48 C128.19 72.01, 95.77 72.16, -1.61 69.33 M160.24 70.12 C99.05 69.6, 38.36 69.99, -0.92 70.26 M0.29 70.97 C0.38 54.29, 0.66 35.13, 0.96 0.75 M-0.92 70.3 C-0.64 46.89, -1.13 23.79, 0.25 -0.93" stroke="#000000" stroke-width="1" fill="none"></path></g><g transform="translate(645 18) rotate(0 75 27)"><text x="75" y="19" font-family="Virgil, Segoe UI Emoji" font-size="20px" fill="#000000" text-anchor="middle" style="white-space: pre;" direction="ltr">TERRAFORM</text><text x="75" y="46" font-family="Virgil, Segoe UI Emoji" font-size="20px" fill="#000000" text-anchor="middle" style="white-space: pre;" direction="ltr">FORMAT</text></g><g stroke-linecap="round" transform="translate(850 10) rotate(0 80 35)"><path d="M-1.32 -1.87 C40.01 -2.98, 78.76 -1.6, 161.65 -1.85 M0.52 0.8 C51.21 -1.91, 102.82 -1.3, 160.69 -0.82 M158.2 0.99 C161.13 19.26, 159.8 35.1, 159.76 69.51 M160.25 0.81 C160.16 17.53, 160.14 33.88, 160.19 69.9 M161.34 70.55 C106.29 69.24, 48.29 70.57, 1.34 69.09 M160.11 69.99 C110.43 68.89, 62.23 69.47, -0.39 69.09 M-0.34 68.15 C-0.23 54.13, 0.09 35.33, -0.72 0.81 M-0.3 70.79 C0.24 42.9, -0.03 15.38, 0.22 0.61" stroke="#000000" stroke-width="1" fill="none"></path></g><g transform="translate(855 18) rotate(0 75 27)"><text x="75" y="19" font-family="Virgil, Segoe UI Emoji" font-size="20px" fill="#000000" text-anchor="middle" style="white-space: pre;" direction="ltr">TERRAFORM </text><text x="75" y="46" font-family="Virgil, Segoe UI Emoji" font-size="20px" fill="#000000" text-anchor="middle" style="white-space: pre;" direction="ltr">INIT</text></g><g stroke-linecap="round" transform="translate(1063 13) rotate(0 80 32)"><path d="M1.59 0.24 C44.99 0.16, 89.12 0.91, 161.21 -1.97 M0.46 0.95 C50.94 0.05, 102.89 -0.73, 160.8 0.64 M160 1.74 C159.76 23.31, 160 42.87, 158 62.35 M159.47 0.62 C160.67 20.15, 159 41.75, 160.32 63.62 M160.13 64.12 C100.3 64.46, 42.88 64.87, 1.77 65.06 M159.31 64.77 C101.73 63.74, 42.25 63.74, 0.33 64.84 M1.01 63.63 C0.03 41.63, -1.73 20.48, 0.59 1.22 M-0.08 63.36 C-1.03 41.04, 0.53 17.81, 0.53 -0.48" stroke="#000000" stroke-width="1" fill="none"></path></g><g transform="translate(1068 18) rotate(0 75 27)"><text x="75" y="19" font-family="Virgil, Segoe UI Emoji" font-size="20px" fill="#000000" text-anchor="middle" style="white-space: pre;" direction="ltr">TERRAFORM</text><text x="75" y="46" font-family="Virgil, Segoe UI Emoji" font-size="20px" fill="#000000" text-anchor="middle" style="white-space: pre;" direction="ltr">VALIDATE</text></g><g stroke-linecap="round" transform="translate(220 10) rotate(0 80 35)"><path d="M-1.75 0.35 C59.21 1.75, 120.82 0.02, 159.98 1.05 M-0.91 -0.78 C63.67 0.82, 126.19 1.58, 159.97 -0.6 M160 -0.85 C160 25.64, 159.64 53.35, 161.71 71.88 M160.18 -0.15 C159.77 26.42, 159.01 51.98, 160.88 69.89 M161.94 69.2 C105.37 72.82, 50.74 72.79, -0.43 70.68 M160.4 70.25 C120.27 71.9, 79.56 71.74, 0.56 70 M0.58 68.17 C0.84 48.45, -0.36 23.45, -0.12 1.15 M-0.24 69.87 C0.51 51.9, 1.11 35.99, 0.42 0.81" stroke="#000000" stroke-width="1" fill="none"></path></g><g transform="translate(225 18) rotate(0 75 27)"><text x="75" y="19" font-family="Virgil, Segoe UI Emoji" font-size="20px" fill="#000000" text-anchor="middle" style="white-space: pre;" direction="ltr">CODE</text><text x="75" y="46" font-family="Virgil, Segoe UI Emoji" font-size="20px" fill="#000000" text-anchor="middle" style="white-space: pre;" direction="ltr">ANALYSIS</text></g><g stroke-linecap="round"><g transform="translate(171.67689523249862 44.49511602893472) rotate(0 24.16155238375069 -0.30936502441764446)"><path d="M-0.32 1.01 C8.02 0.89, 40.94 0.27, 49.23 0" stroke="#000000" stroke-width="1.5" fill="none" stroke-dasharray="8 9"></path></g><g transform="translate(171.67689523249862 44.49511602893472) rotate(0 24.16155238375069 -0.30936502441764446)"><path d="M28.42 10.33 C32.93 8.7, 37.15 5.62, 48.4 -1.8" stroke="#000000" stroke-width="1.5" fill="none"></path></g><g transform="translate(171.67689523249862 44.49511602893472) rotate(0 24.16155238375069 -0.30936502441764446)"><path d="M28.01 -6.19 C32.71 -3.99, 37.02 -3.25, 48.4 -1.8" stroke="#000000" stroke-width="1.5" fill="none"></path></g></g><g stroke-linecap="round"><g transform="translate(386.95117190331223 45.44052760824559) rotate(0 20.774414048343885 -0.757916829735052)"><path d="M-0.55 1.12 C6.33 0.9, 35.12 -1.67, 42.13 -2" stroke="#000000" stroke-width="1.5" fill="none" stroke-dasharray="8 9"></path></g><g transform="translate(386.95117190331223 45.44052760824559) rotate(0 20.774414048343885 -0.757916829735052)"><path d="M25.01 7.44 C29.4 3.44, 38.29 1.1, 43.32 -2.69" stroke="#000000" stroke-width="1.5" fill="none"></path></g><g transform="translate(386.95117190331223 45.44052760824559) rotate(0 20.774414048343885 -0.757916829735052)"><path d="M24.01 -6.74 C28.69 -5.5, 37.95 -2.61, 43.32 -2.69" stroke="#000000" stroke-width="1.5" fill="none"></path></g></g><g stroke-linecap="round"><g transform="translate(591.5 44.09845700934528) rotate(0 23.5032881401479 0.8218130804598331)"><path d="M0.58 -0.48 C8.51 -0.29, 39.2 1.81, 47.01 2.29" stroke="#000000" stroke-width="1.5" fill="none" stroke-dasharray="8 9"></path></g><g transform="translate(591.5 44.09845700934528) rotate(0 23.5032881401479 0.8218130804598331)"><path d="M23.64 8.91 C31.19 7.9, 37.04 4.74, 47.96 0.96" stroke="#000000" stroke-width="1.5" fill="none"></path></g><g transform="translate(591.5 44.09845700934528) rotate(0 23.5032881401479 0.8218130804598331)"><path d="M24.67 -7.15 C32.11 -4.06, 37.7 -3.15, 47.96 0.96" stroke="#000000" stroke-width="1.5" fill="none"></path></g></g><g stroke-linecap="round"><g transform="translate(806.5065762802958 44.14485936388377) rotate(0 18.9967118598521 0.17818691954016685)"><path d="M0.01 0.64 C6.32 0.9, 32.21 1.02, 38.47 1.07" stroke="#000000" stroke-width="1.5" fill="none" stroke-dasharray="8 9"></path></g><g transform="translate(806.5065762802958 44.14485936388377) rotate(0 18.9967118598521 0.17818691954016685)"><path d="M21.6 8.21 C27.97 4.57, 33.98 1.73, 40.16 1.89" stroke="#000000" stroke-width="1.5" fill="none"></path></g><g transform="translate(806.5065762802958 44.14485936388377) rotate(0 18.9967118598521 0.17818691954016685)"><path d="M21.68 -4.79 C27.97 -3.89, 33.95 -2.2, 40.16 1.89" stroke="#000000" stroke-width="1.5" fill="none"></path></g></g><g stroke-linecap="round"><g transform="translate(1013.5 44.005183488875616) rotate(0 22.79364596828816 0.35514063611626057)"><path d="M0.48 0.71 C8.01 0.82, 37.79 1.1, 45.17 1.28" stroke="#000000" stroke-width="1.5" fill="none" stroke-dasharray="8 9"></path></g><g transform="translate(1013.5 44.005183488875616) rotate(0 22.79364596828816 0.35514063611626057)"><path d="M24.82 8.05 C31.02 5.08, 38.32 5.03, 46.51 -0.2" stroke="#000000" stroke-width="1.5" fill="none"></path></g><g transform="translate(1013.5 44.005183488875616) rotate(0 22.79364596828816 0.35514063611626057)"><path d="M25.06 -7.54 C31.27 -5.83, 38.5 -1.19, 46.51 -0.2" stroke="#000000" stroke-width="1.5" fill="none"></path></g></g></svg>