<svg version="1.1" xmlns="http://www.w3.org/2000/svg" viewBox="0 0 671.7864907293853 244.3324578058157" width="671.7864907293853" height="244.3324578058157">
  <!-- svg-source:excalidraw -->
  
  <defs>
    <style>
      @font-face {
        font-family: "Virgil";
        src: url("https://excalidraw.com/Virgil.woff2");
      }
      @font-face {
        font-family: "Cascadia";
        src: url("https://excalidraw.com/Cascadia.woff2");
      }
    </style>
  </defs>
  <rect x="0" y="0" width="671.7864907293853" height="244.3324578058157" fill="#ffffff"></rect><g stroke-linecap="round" transform="translate(391.78649072938526 102.42878808104501) rotate(0 135 65.95183486238534)"><path d="M-0.26 -0.55 C87.75 -0.98, 177.95 -1.72, 269.58 0.42 M268.16 -1.89 C270.16 41.7, 269.99 86.65, 270.65 131.67 M268.51 133.45 C186.31 132.26, 103.54 132.58, 1.54 131.66 M1.17 133.51 C1.48 104, 0.14 76.74, -0.15 -1.29" stroke="#000000" stroke-width="1.5" fill="none" stroke-dasharray="8 9"></path></g><g stroke-linecap="round" transform="translate(46.1711564021565 123.31448567520852) rotate(329.0957986716125 20.11848329612718 33.63613391981369)"><path d="M21.15 -0.17 C21.15 -0.17, 21.15 -0.17, 21.15 -0.17 M21.15 -0.17 C21.15 -0.17, 21.15 -0.17, 21.15 -0.17 M4.16 17.42 C10.44 12.14, 20.74 13.66, 19.81 3.16 M7.42 19.82 C10.07 18.22, 13.55 14.06, 21.38 2.48 M-1.53 33.49 C3.88 27.57, 11.93 24.65, 25.38 10.8 M2.22 35.38 C7.24 25.27, 16.62 16.66, 24.88 8.22 M-0.41 36.81 C4.63 35.29, 13.48 26.29, 27.91 13.17 M1.93 39.35 C10.07 32.48, 14.09 27.97, 27.69 10.03 M4.27 40.56 C10.75 32.23, 14.82 30.21, 27.47 13.57 M3.86 41.82 C12.05 36.56, 19.03 26.42, 27.41 13.07 M9.39 45.16 C19.09 38.08, 29.82 21.29, 32.55 19.4 M7.2 45.26 C13.93 39.37, 19.05 30.64, 32.5 18.97 M14.23 45.38 C18.79 42.22, 29.38 30.23, 34.92 19.88 M10.05 48.87 C14.03 44.75, 20.9 38.66, 31.97 20.83 M15.34 51.59 C16.52 49.94, 20.45 43.91, 34.39 24.54 M11 51.06 C17.95 44.22, 26.05 36.69, 34.87 26.94 M12.68 59.17 C18.11 49.27, 31.05 41.55, 37.09 33.78 M14.04 56.18 C21.59 43.91, 33.16 35.15, 39.28 28.56 M17.13 57.65 C25.8 52.07, 38.14 43.12, 40.18 29.28 M14.85 60.81 C25.44 50.88, 32.31 43.21, 39.83 31.67 M16.68 64.1 C30 56.87, 33.84 44.24, 39.42 39.08 M17.68 64.48 C24.1 55.42, 28.43 51.03, 42 35.19 M19.68 64.83 C23.29 62.98, 26.4 58.92, 34.88 53.39 M21.07 67.84 C23.16 62.54, 26.81 58.79, 31.4 55.57 M21.01 67.28 C21.01 67.28, 21.01 67.28, 21.01 67.28 M21.01 67.28 C21.01 67.28, 21.01 67.28, 21.01 67.28 M22.4 61.38 C20.87 60.57, 15.97 60.84, 11.66 57.11 M23.17 63.8 C19.42 60.6, 16.42 58.9, 13.15 55.14 M28.21 58.03 C21.41 55.18, 17.77 49.79, 3.18 39.59 M25.32 59.53 C18.97 56.56, 12.92 51.58, 4.55 43.92 M26.9 60.59 C19.24 50.05, 12.49 45.68, -1.89 32.26 M28.76 57.42 C18.72 49.05, 15.14 44.21, 0.22 32.07 M32.65 51.84 C20.32 44.65, 9.73 36.48, 5.84 32.78 M31.16 54.84 C23.02 47.1, 19.53 44.65, 3.45 28.88 M31.13 45.79 C24.09 44.42, 15.25 41.64, 6.55 29.11 M31.93 50.95 C19.31 41.08, 12.37 32.34, 2.82 26.64 M35.71 48.16 C23.76 37.07, 17.03 33.26, 10.13 26.55 M31.63 45.98 C26.44 40.96, 19.38 33.51, 6.87 23.63 M36.4 46.13 C32.11 39.15, 18.13 31.55, 9.91 19.76 M35.74 44.27 C26.73 36.29, 20.6 31.02, 8.56 21.34 M40.39 42.24 C25.78 31.58, 21.23 29.71, 7.87 19.23 M37.88 37.39 C27.05 32.37, 20.91 23.93, 9.25 16.25 M40.07 38.84 C31.67 29.66, 21.23 15.85, 14.69 11.75 M38.63 33.86 C28.34 25.07, 20.16 18.04, 13.47 13.51 M38.21 32.61 C34.78 29.09, 27.28 16.93, 18.94 10.96 M41.46 30.9 C34.1 28.59, 31.1 21.38, 16.92 10.76 M32.96 17.86 C29.06 18.15, 18.11 9.37, 20.39 3.84 M36.43 23.01 C28.64 16.59, 20.24 7.14, 18.45 5.85 M28.23 9.92 C27.92 6.55, 20.83 4.03, 21.15 0.08 M29.02 10.38 C27.03 7.09, 21.97 4.74, 18.98 2.46" stroke="#594be0" stroke-width="0.5" fill="none"></path><path d="M19.51 -1.78 C26 12.96, 33.2 24.48, 38 30.95 M19.16 -1.3 C27.78 8.49, 32.7 17.75, 40.87 32.34 M39.68 35.46 C36.64 40.97, 28.82 53.53, 20.57 66.84 M41.45 35.07 C34.07 44.47, 29.24 58.11, 21.32 65.52 M18.6 66.66 C13.58 56.93, 12.41 45.53, 0.45 35.51 M19.61 67.27 C13.66 56.66, 8.7 45.44, -0.93 33.56 M0.82 34.96 C5.31 25.8, 10.27 13.8, 18.53 1.21 M-0.7 32.43 C2.41 24.62, 7.68 17.28, 21.32 -0.63" stroke="#594be0" stroke-width="1" fill="none"></path></g><g stroke-linecap="round" transform="translate(47.44046411655006 167.8075443397305) rotate(329.0957986716125 20.11848329612718 33.63613391981369)"><path d="M21.15 -0.17 C21.15 -0.17, 21.15 -0.17, 21.15 -0.17 M21.15 -0.17 C21.15 -0.17, 21.15 -0.17, 21.15 -0.17 M3.86 18.83 C7.76 20.45, 18.44 10.51, 22.04 0.82 M6.26 20 C11.8 16.42, 14.75 12.37, 21.37 2.05 M-0.83 33.26 C6.31 28.25, 16.4 18.92, 28.67 8.07 M1.05 33.89 C7.34 26.62, 15.11 17.38, 26.09 5.53 M1.47 35.39 C15.25 28.73, 21.55 17.67, 30.02 7.31 M4 40.57 C12 29.51, 22.35 18.7, 26.88 10.16 M4.2 40.5 C9.53 31.14, 21.13 26.01, 28 13.3 M5.46 42.11 C13.86 35.87, 17.31 25.62, 27.5 16.66 M7.78 46.72 C16.05 42.56, 14.66 35.12, 32.81 15.46 M7.88 45.44 C13.49 39.23, 16.31 34.31, 32.39 19.18 M6.99 49.11 C19.48 43.86, 23.13 35.07, 30.86 18.66 M10.48 47.14 C16.48 43.99, 20.51 36.79, 31.82 20.79 M10.77 51.89 C21.21 43.17, 27.32 37.12, 34.51 24.65 M10.25 52.47 C18.42 45.55, 25.97 34.66, 36.91 25.71 M17.34 52.96 C21.56 52.06, 27.97 41.77, 41.32 33.65 M14.35 54.58 C20.2 48.26, 29.61 40.38, 36.11 31.58 M14.8 59.88 C26.6 55.03, 35.04 43.39, 35.81 33.75 M17.96 61.3 C23.98 52.64, 32.23 42.53, 38.2 33.71 M20.23 66.41 C29.55 53.98, 33.47 42.06, 46 32.99 M20.61 62.38 C23.98 54.56, 31.98 48.33, 42.11 35.81 M19.95 65.05 C24.78 61.62, 27.38 62.28, 31.08 54.03 M22.95 64.87 C23.71 62.58, 26.04 59.92, 33.26 55.16 M21.01 67.28 C21.01 67.28, 21.01 67.28, 21.01 67.28 M21.01 67.28 C21.01 67.28, 21.01 67.28, 21.01 67.28 M20.66 64.3 C19.24 59.78, 19.23 56.8, 15.2 56.1 M23.07 63.13 C18.68 59.99, 15.95 56.9, 13.23 55.05 M22.84 60.99 C19.92 58.22, 13.87 49.48, 1.94 43.68 M24.35 59.72 C21.51 55.37, 16.75 50.42, 6.28 42.99 M31.06 56.52 C16.04 48.38, 8.08 37.3, -0.83 31.92 M27.88 55.07 C20.8 54.01, 16.39 47.16, -1.02 35.13 M27.85 54.8 C20.77 47.43, 12.87 41.53, 5.33 26.37 M30.85 52.52 C18.5 47.2, 11.86 39.01, 1.43 28.73 M27.34 48.69 C20.83 37.51, 13.7 34.97, 7.2 30.14 M32.5 48.11 C23.17 44.31, 14.91 33.23, 4.73 27.03 M35.25 45.29 C23.59 39.83, 18.46 34.66, 10.19 21.31 M33.08 45.91 C27.76 39.93, 20.04 34.99, 7.27 22.71 M38.86 46.82 C32.04 34.65, 24.25 31.84, 9.04 19.87 M37 41.53 C30.02 38.26, 25.77 32.12, 10.62 19.63 M40.52 35.41 C27.04 30.11, 21.74 19.01, 14.06 17.27 M35.67 37.8 C28.32 31.33, 16.95 19.38, 11.08 17.08 M42.67 36.6 C35.43 29.83, 23.2 26.46, 12.13 15.83 M37.68 34.93 C27.53 28.12, 19.47 18.82, 13.89 11.99 M42.08 32.85 C33.83 23.3, 17.88 17.95, 16.98 6.32 M40.37 30.77 C32.38 24.8, 20.28 16.47, 16.78 11.21 M31.79 21.87 C33.76 13.94, 26.78 16.95, 15.4 9.45 M36.94 21.93 C30.68 15.2, 20.98 11.69, 17.41 7.78 M28.4 13.44 C26.68 8.53, 25.62 9.34, 17.18 2.97 M28.87 11.97 C25.59 7.68, 23.29 5.8, 19.56 2.84" stroke="#594be0" stroke-width="0.5" fill="none"></path><path d="M19.22 -1.23 C26.24 7.78, 30.75 14.46, 37.19 32.65 M19.7 1.97 C25.41 10.75, 30.5 18.24, 38.57 34.14 M41.7 35.81 C29.63 46.37, 24.71 58.59, 20.57 68.68 M41.31 33.77 C32.53 48.14, 27.79 59.58, 19.25 66.86 M20.39 65.66 C12.9 60.43, 4.69 48.14, 1.51 35.45 M21 67.12 C14.43 58.33, 7.72 44.88, -0.44 34.45 M0.96 32.61 C9.15 20.14, 14.66 10.31, 22.21 -3.33 M-1.57 32.38 C5.78 20.42, 13.73 8.79, 20.37 -1.84" stroke="#594be0" stroke-width="1" fill="none"></path></g><g stroke-linecap="round" transform="translate(7.157175348247506 101.68143370750283) rotate(329.0957986716125 20.11848329612718 33.63613391981369)"><path d="M21.15 -0.17 C21.15 -0.17, 21.15 -0.17, 21.15 -0.17 M21.15 -0.17 C21.15 -0.17, 21.15 -0.17, 21.15 -0.17 M5.27 17.79 C15.32 20.24, 13.77 10.75, 19.71 0.65 M6.44 21.98 C10.74 17.16, 14.57 10.62, 20.93 3.98 M-1.07 32.84 C7.53 29.91, 11.76 27.08, 25.94 7.69 M-0.44 34.03 C7.52 26.63, 13.55 20.81, 23.4 9.13 M0.04 41.16 C11.71 29.74, 18.9 24.35, 24.17 13.33 M5.22 38.46 C11.62 31.49, 18.2 21.22, 27.01 10.01 M4.14 39.4 C7.99 38.02, 16.07 27.09, 27.73 13.87 M5.75 43.22 C11.99 34.54, 14.16 28.93, 31.09 12.92 M9.34 48.98 C19.25 32.95, 25.91 26.85, 28.88 15.18 M8.07 45.95 C16.61 33.57, 26.41 26.27, 32.59 17.85 M10.71 51.16 C18.56 42.14, 22.93 33.48, 29.65 18.46 M8.75 50.21 C17.77 41.74, 22.71 31.57, 31.78 21.56 M11.07 56.27 C18.01 46.44, 27.67 31.93, 34.62 26.75 M11.65 52.04 C22.76 41.82, 29.86 33.48, 35.68 25.2 M11.12 57.2 C24.63 48.77, 28.73 43.34, 41.19 31.41 M12.74 54.67 C24.02 46.4, 33.73 35.11, 39.13 30.18 M17.03 62.45 C28.4 54.8, 32.98 37.75, 40.27 34.62 M18.45 58.83 C24.08 52.92, 28.2 45.39, 40.24 33.85 M22.55 65.58 C25.92 53.74, 29.78 50.45, 39.92 34.39 M18.51 61.42 C24 55.84, 31.02 47.95, 42.73 35.78 M20.17 66.46 C23 62.99, 29.91 59.38, 31.72 52.61 M19.98 66.15 C24.37 61.45, 28.39 58.94, 32.85 54.54 M21.01 67.28 C21.01 67.28, 21.01 67.28, 21.01 67.28 M21.01 67.28 C21.01 67.28, 21.01 67.28, 21.01 67.28 M23.57 62.76 C17.83 62.11, 13.58 58.59, 14.19 57.81 M22.41 62.99 C19.02 61.01, 15.77 57.48, 13.14 55.09 M25.81 59.47 C22.38 54.33, 13.59 48.71, 6.03 41.64 M24.54 61.5 C18.27 56.33, 11.59 50.05, 5.34 44.92 M26.98 56.02 C17.22 49.5, 4.39 38.18, -1.17 29.88 M25.53 55.78 C22.94 52.22, 15.26 45.57, 2.04 33.9 M30.81 53.56 C21.84 46.95, 15.18 41.05, -1.08 31.65 M28.52 51.52 C20.87 46.26, 11.31 36.52, 1.29 31.44 M30.24 49.11 C17.23 42.21, 12.85 34.09, 8.24 27.38 M29.66 50.03 C25.02 43.81, 13.49 36.44, 5.13 27.2 M32.39 44.85 C27.95 43.62, 24.49 39.6, 4.95 20.37 M33 46.91 C25.15 38.53, 17.67 32.77, 6.35 22.09 M39.55 45.96 C26.05 39.29, 22.11 30.87, 9.16 16.75 M34.27 43.14 C27.98 38.12, 18.89 30.71, 8.91 21.48 M33.69 38.47 C30.09 38.12, 21.41 31.69, 12.1 20 M36.09 40.17 C32.13 33.23, 22.9 27.72, 11.91 14.99 M40.42 37.71 C31.99 26.17, 27.14 23.09, 16.2 15.41 M38.76 33.66 C32.02 27.32, 22.46 20.75, 12.36 14.15 M42.32 34.83 C32.01 19.87, 24.97 15.84, 12.34 12.57 M40.24 33.21 C33.13 21.89, 23.39 15.86, 17.23 8.23 M35.8 24.13 C26.28 16.09, 27.27 9.31, 21.01 7.97 M35.86 22.95 C30.08 16.14, 27.82 14.36, 19.34 3.97 M31.93 10.28 C26.42 8.92, 26.41 4.44, 20.08 1.62 M30.46 10.08 C25.68 7.72, 23.07 5.76, 19.94 2.96" stroke="#594be0" stroke-width="0.5" fill="none"></path><path d="M19.77 1.01 C24.59 8.94, 27.48 12.98, 38.88 32.15 M22.97 -0.53 C28.09 10.43, 32.89 19.59, 40.38 35.54 M42.04 30.91 C35.03 42.04, 29.71 51.01, 22.41 70.32 M40.01 33.01 C34.75 48.3, 26.4 57.64, 20.59 67.08 M19.38 65.86 C16.33 50.78, 5.56 42.91, 1.45 34.73 M20.84 67.67 C16.21 56.24, 6.15 44.04, 0.45 34.22 M-1.39 36.99 C4.08 23.84, 12.25 11.05, 17.67 3.1 M-1.62 32.23 C6.81 20.5, 15.49 9.52, 19.16 -1.25" stroke="#594be0" stroke-width="1" fill="none"></path></g><g stroke-linecap="round" transform="translate(85.3899182393028 124.4145013285862) rotate(210.5193166923191 20.11848329612718 33.63613391981369)"><path d="M21.15 -0.17 C21.15 -0.17, 21.15 -0.17, 21.15 -0.17 M21.15 -0.17 C21.15 -0.17, 21.15 -0.17, 21.15 -0.17 M4.23 24.2 C14.92 14.82, 13.63 11.09, 19.53 2.85 M8.42 20.13 C12.63 15.15, 15.07 9.79, 22.87 2.21 M-1.48 36.36 C7.33 29.03, 16.21 22.94, 25.56 6.31 M-0.3 35.55 C8.79 25.1, 19.46 13.46, 27.01 7.42 M5.82 39.16 C7.94 33.59, 16.06 24.07, 30.18 10.59 M3.11 39.38 C10.02 31.84, 13.63 24.71, 26.87 9.81 M3.04 38.15 C14.86 33.19, 17.1 26.25, 28.3 11.22 M6.86 42.92 C8.82 34.43, 13.84 32.42, 27.34 16.12 M11.61 48.23 C13.34 37.08, 25 24.33, 28.59 20.89 M8.57 45.11 C12.26 39.22, 21.02 32.29, 31.27 17.23 M12.77 51.72 C19.5 39.86, 26.53 24.13, 29.45 22.23 M11.82 49.26 C17.67 40.31, 21.82 32.65, 32.54 23.71 M15.45 50.6 C24.61 41.36, 29.07 31.24, 36.72 29.26 M11.22 54.12 C17.39 45.52, 25.37 39.67, 35.17 26 M15.37 59.05 C21.01 49.6, 29.7 46.95, 38.95 32.95 M12.84 57.1 C20.92 51.18, 25.98 43.66, 37.72 30.77 M19.6 63.39 C28.14 51.92, 27.24 43.89, 41.14 30.68 M15.98 61.01 C20.87 54.03, 24.18 49.12, 40.38 33.03 M21.71 62.63 C23.3 52.83, 33.45 46.88, 41.31 34.25 M17.55 61.34 C24.27 56.3, 28.73 50.92, 42.7 35.01 M21.58 65.06 C23.75 66.44, 25.78 60.36, 30.3 56.06 M21.26 65.48 C23.64 62.73, 28.22 60.93, 32.23 55.22 M21.01 67.28 C21.01 67.28, 21.01 67.28, 21.01 67.28 M21.01 67.28 C21.01 67.28, 21.01 67.28, 21.01 67.28 M22.03 62.11 C22.28 59.29, 19.33 59.61, 15.9 57.02 M22.26 62.99 C20.07 60.31, 16.39 57.74, 13.18 54.73 M24.29 61.93 C15.74 50.99, 6.38 47.5, 4 43.97 M26.32 59.41 C20.19 53.17, 12.81 48.57, 7.27 45.24 M26.48 57.17 C20.3 47.96, 10.25 41.87, -3.21 29.98 M26.24 58.7 C17.51 47.7, 5.96 40.8, 0.81 33.61 M29.57 54.57 C20.39 47.62, 11.57 31.85, 4.2 31.99 M27.52 54.37 C18.89 44.58, 6.56 33.32, 3.99 31.89 M30.66 45.73 C25.49 44.4, 18.18 39.19, 5.48 26.38 M31.58 51.43 C22.43 39.47, 12.82 33.95, 5.3 25.05 M31.95 47.04 C25.54 40.92, 16.91 27.29, 4.01 22.99 M34 45.7 C26.36 40.86, 21.39 35.01, 5.73 22.27 M38.7 40.47 C28.91 36.77, 18.19 28.67, 6.04 20.06 M35.87 43.3 C29.05 34.85, 20.53 28.16, 10.77 18.66 M36.75 38.41 C31.25 26.94, 20.42 22.6, 14.83 13.83 M38.45 40.27 C29.45 29.66, 20.99 24.96, 9.82 15.49 M41.53 35.19 C26.81 30.12, 21.36 24.33, 15.78 13.88 M37.49 36.83 C32.63 29.83, 26.72 22.66, 14.53 14.44 M44.3 32.52 C32.93 31.21, 32.51 19.87, 18.59 12.73 M42.68 33.57 C33.63 27.11, 29.07 21.12, 14.25 9.85 M38.06 17.87 C31.35 20.88, 25.28 17.8, 19.54 3.37 M36.87 20.59 C27.1 17.27, 22.83 12.74, 15.53 5 M28.76 10.53 C27.42 11.17, 22.74 7.87, 18.73 2.52 M28.56 10.38 C26.82 8.95, 25.2 7.71, 20.06 2.26" stroke="#3e44ac" stroke-width="0.5" fill="none"></path><path d="M22.01 -0.64 C26.59 6.81, 27.75 16.63, 38.38 34.35 M20.47 1.77 C24.24 7.33, 26.9 13.91, 41.78 33.2 M37.14 33.89 C34.22 43.26, 29.04 54.61, 24.05 70.41 M39.25 35.39 C35.16 46.28, 24.97 57.54, 20.81 69.03 M19.58 70.35 C12.54 59.57, 12.54 52.58, 0.73 35.7 M21.4 69.21 C16.52 58.64, 10.87 52.35, 0.22 35.08 M2.99 30.79 C8.54 20.78, 14.51 9.03, 24.1 2.22 M-1.77 33.11 C4.36 25.64, 11.04 14.48, 19.75 0.82" stroke="#3e44ac" stroke-width="1" fill="none"></path></g><g stroke-linecap="round" transform="translate(504.3402521606944 130.47529426724827) rotate(0 30.79198596426488 19.662352483205268)"><path d="M0 0 L61.58 0 L61.58 39.32 L0 39.32" stroke="none" stroke-width="0" fill="#d3d3d3"></path><path d="M0 0 C23.4 0, 46.8 0, 61.58 0 M0 0 C16.34 0, 32.69 0, 61.58 0 M61.58 0 C61.58 10.61, 61.58 21.21, 61.58 39.32 M61.58 0 C61.58 14.78, 61.58 29.57, 61.58 39.32 M61.58 39.32 C40.06 39.32, 18.53 39.32, 0 39.32 M61.58 39.32 C42.65 39.32, 23.72 39.32, 0 39.32 M0 39.32 C0 25.28, 0 11.23, 0 0 M0 39.32 C0 29.47, 0 19.61, 0 0" stroke="#d3d3d3" stroke-width="1" fill="none"></path></g><g stroke-linecap="round" transform="translate(504.1898055022722 121.35275597923953) rotate(0 30.807667316592642 5.124003158192977)"><path d="M0 0 L61.62 0 L61.62 10.25 L0 10.25" stroke="none" stroke-width="0" fill="#37c2b1"></path><path d="M0 0 C14.03 0, 28.06 0, 61.62 0 M0 0 C18.25 0, 36.5 0, 61.62 0 M61.62 0 C61.62 2.97, 61.62 5.94, 61.62 10.25 M61.62 0 C61.62 3.59, 61.62 7.18, 61.62 10.25 M61.62 10.25 C44.17 10.25, 26.73 10.25, 0 10.25 M61.62 10.25 C43.14 10.25, 24.67 10.25, 0 10.25 M0 10.25 C0 7.02, 0 3.79, 0 0 M0 10.25 C0 7.76, 0 5.27, 0 0" stroke="#37c2b1" stroke-width="1" fill="none"></path></g><g stroke-linecap="round" transform="translate(512.4029509001838 136.44001180465034) rotate(0 23.198699166629353 3.3675531048332914)"><path d="M0 0 L46.4 0 L46.4 6.74 L0 6.74" stroke="none" stroke-width="0" fill="#ffff"></path><path d="M0 0 C12.19 0, 24.37 0, 46.4 0 M0 0 C13.67 0, 27.34 0, 46.4 0 M46.4 0 C46.4 1.65, 46.4 3.31, 46.4 6.74 M46.4 0 C46.4 2.1, 46.4 4.2, 46.4 6.74 M46.4 6.74 C33.09 6.74, 19.79 6.74, 0 6.74 M46.4 6.74 C32.85 6.74, 19.3 6.74, 0 6.74 M0 6.74 C0 4.13, 0 1.53, 0 0 M0 6.74 C0 5.08, 0 3.42, 0 0" stroke="#ffff" stroke-width="1" fill="none"></path></g><g stroke-linecap="round" transform="translate(512.4029509001838 146.9168436863538) rotate(0 23.198699166629353 3.3675531048332914)"><path d="M0 0 L46.4 0 L46.4 6.74 L0 6.74" stroke="none" stroke-width="0" fill="#37c2b1"></path><path d="M0 0 C12.02 0, 24.03 0, 46.4 0 M0 0 C11.89 0, 23.78 0, 46.4 0 M46.4 0 C46.4 2.38, 46.4 4.76, 46.4 6.74 M46.4 0 C46.4 2.38, 46.4 4.77, 46.4 6.74 M46.4 6.74 C31.48 6.74, 16.56 6.74, 0 6.74 M46.4 6.74 C28.05 6.74, 9.7 6.74, 0 6.74 M0 6.74 C0 4.36, 0 1.98, 0 0 M0 6.74 C0 5.28, 0 3.82, 0 0" stroke="#37c2b1" stroke-width="1" fill="none"></path></g><g stroke-linecap="round" transform="translate(512.4029509001838 156.64533043364975) rotate(0 23.198699166629353 3.3675531048332914)"><path d="M0 0 L46.4 0 L46.4 6.74 L0 6.74" stroke="none" stroke-width="0" fill="#258277"></path><path d="M0 0 C10.43 0, 20.86 0, 46.4 0 M0 0 C11.21 0, 22.43 0, 46.4 0 M46.4 0 C46.4 1.82, 46.4 3.64, 46.4 6.74 M46.4 0 C46.4 2.05, 46.4 4.09, 46.4 6.74 M46.4 6.74 C33.49 6.74, 20.58 6.74, 0 6.74 M46.4 6.74 C33.41 6.74, 20.41 6.74, 0 6.74 M0 6.74 C0 4.55, 0 2.37, 0 0 M0 6.74 C0 4.13, 0 1.53, 0 0" stroke="#258277" stroke-width="1" fill="none"></path></g><g transform="translate(500.28649072938526 172.5048201828505) rotate(0 35.5 20)"><text x="0" y="14" font-family="Virgil, Segoe UI Emoji" font-size="16px" fill="#000000" text-anchor="start" style="white-space: pre;" direction="ltr">Storage</text><text x="0" y="34" font-family="Virgil, Segoe UI Emoji" font-size="16px" fill="#000000" text-anchor="start" style="white-space: pre;" direction="ltr">Accounts</text></g><g stroke-linecap="round"><g transform="translate(368.9651328982028 74.98288268379434) rotate(0 -4.0525279352011125 31.567622498116663)"><path d="M0.6 0.52 C-2.29 3.22, -6.61 8.42, -10.19 11.04 M0.28 -0.44 C-3.8 3.23, -6.4 7.72, -8.95 10.34 M-10.37 9.39 C-10.33 26.07, -7.28 44.46, -9.29 53.41 M-9.32 10.62 C-9.37 27.67, -8.08 43.37, -9.55 53.7 M-9.19 54.71 C-6.16 55.96, -3.54 58.09, 1.83 62.03 M-8.68 54.57 C-4.87 57.12, -1.92 59.7, 0.84 62.57" stroke="#495057" stroke-width="4" fill="none"></path></g></g><g stroke-linecap="round"><g transform="translate(420.65371820010307 74.85757616209008) rotate(0 4.108964640132967 31.39310990027286)"><path d="M0.52 0.67 C2.22 2.35, 6.45 4.95, 9.22 11.71 M-0.44 -0.66 C2.7 3.99, 6.67 8.11, 8.53 11.37 M7.57 9.29 C8.35 26.04, 10.67 37.88, 8.23 55.3 M8.81 10.59 C9.63 22.09, 8.74 30.64, 8.52 53.18 M9.54 53.6 C4.86 57.05, 1.16 61.14, -2 63.09 M9.4 54.25 C5.47 57.5, 1.52 60.34, -1.46 62.25" stroke="#495057" stroke-width="4" fill="none"></path></g></g><g stroke-linecap="round"><g transform="translate(396.78014129012274 83.60077630685197) rotate(0 -1.9303426214631827 22.824385685795875)" fill-rule="evenodd"><path d="M0.97 0.6 L-24.12 8.45 L-24.72 36.9 L-3.36 43.79 L20.77 34.16 L19.45 10.86 L-1.81 1.14" stroke="none" stroke-width="0" fill="#88dee6" fill-rule="evenodd"></path><path d="M0.95 -0.38 C-5.92 3.73, -11.57 3.7, -23.08 9.92 M-0.93 -0.98 C-7.02 2.12, -13.96 3.92, -23.56 8.69 M-25.85 7.64 C-23.21 19.11, -25.31 26, -22.88 33.83 M-24.54 8.71 C-23.59 18.07, -25.5 28.56, -25 35.59 M-24.59 34.44 C-18.95 36.63, -12.37 38.51, -2.51 47.02 M-23.61 35.37 C-16.75 38.05, -10.52 40.88, -3.77 46.05 M-1.26 45.95 C4.8 42.71, 9.87 39.41, 21.58 36.72 M-2.84 45.99 C5.64 40.58, 16.11 38.07, 19.77 35.53 M20.65 35.45 C20.1 26.31, 21 21.95, 21.95 9.16 M19.47 34.49 C20.13 27.32, 21.39 20.95, 19.88 8.52 M20.62 9.27 C13.49 5.25, 6.98 2.66, 0.02 -0.86 M20.59 8.83 C15.23 6.33, 9.66 2.98, -0.18 -0.6 M0 0 C0 0, 0 0, 0 0 M0 0 C0 0, 0 0, 0 0" stroke="#364fc7" stroke-width="2" fill="none"></path></g></g><g stroke-linecap="round" transform="translate(371.0642760954762 81.87144460569476) rotate(0 22.85336228614284 11.888853937015114)"><path d="M23.05 -1.59 L46.16 12.59 L22.77 22.52 L0.52 13.68" stroke="none" stroke-width="0" fill="#88dee6" fill-rule="evenodd"></path><path d="M22.62 -1 C32.74 2.3, 38.76 9.3, 47.17 11.78 M22.02 -0.04 C30.45 4.32, 37.5 9.06, 45.94 12.4 M44.89 13.34 C42 13.87, 34.62 18.93, 21.84 25.44 M45.96 12.88 C39.06 14.15, 33.33 17.78, 23.6 23.28 M22.45 24.03 C16.11 22.18, 9.42 18.16, 1.38 12.53 M23.38 24.54 C15.97 20.5, 8.61 16.31, 0.4 12.01 M0.3 12.88 C9.27 6.08, 18.25 3.76, 24.86 1.99 M0.34 11.35 C6.26 8.82, 15.18 4.11, 23.67 -0.14" stroke="#364fc7" stroke-width="1" fill="none"></path></g><g stroke-linecap="round"><g transform="translate(393.8643852165943 106.75653241668766) rotate(0 -11.582221556793115 11.096270582973915)"><path d="M-1 1.92 C-2.01 7.64, 0.47 16.42, -1.44 22.97 M-0.04 -0.17 C-0.45 4.44, -0.07 10.78, -0.82 21.5 M0.12 23.81 C-6.69 18.94, -9.25 15.65, -21.5 9.66 M-0.34 21.64 C-8.04 18.82, -13.47 16.45, -23.67 9.9" stroke="#364fc7" stroke-width="1" fill="none"></path></g></g><g transform="translate(169.78649072938526 126.92878808104501) rotate(0 77 13)"><text x="0" y="19" font-family="Virgil, Segoe UI Emoji" font-size="20px" fill="#000000" text-anchor="start" style="white-space: pre;" direction="ltr">terraform apply</text></g><g transform="translate(351.28649072938526 10) rotate(0 43.5 25)"><text x="43.5" y="18" font-family="Virgil, Segoe UI Emoji" font-size="20px" fill="#000000" text-anchor="middle" style="white-space: pre;" direction="ltr">Resource</text><text x="43.5" y="43" font-family="Virgil, Segoe UI Emoji" font-size="20px" fill="#000000" text-anchor="middle" style="white-space: pre;" direction="ltr">Group</text></g><g stroke-linecap="round"><g transform="translate(140.78649072938526 168.5942403229327) rotate(0 99 0)"><path d="M-0.12 -0.27 C32.73 0.05, 164.48 0.9, 197.44 1.03 M-1.64 -1.46 C30.96 -1.38, 163.15 -0.53, 196.19 -0.55" stroke="#000000" stroke-width="1" fill="none"></path></g><g transform="translate(140.78649072938526 168.5942403229327) rotate(0 99 0)"><path d="M167.52 8.68 C179.1 5.64, 187.55 1.41, 196.4 -0.23 M168.75 9.57 C177.68 6.21, 188.66 1.83, 196.91 -1.22" stroke="#000000" stroke-width="1" fill="none"></path></g><g transform="translate(140.78649072938526 168.5942403229327) rotate(0 99 0)"><path d="M167.59 -11.84 C179 -8.09, 187.42 -5.54, 196.4 -0.23 M168.82 -10.95 C177.73 -6.67, 188.68 -3.41, 196.91 -1.22" stroke="#000000" stroke-width="1" fill="none"></path></g></g></svg>